<svg width="184" height="13" viewBox="0 0 184 13" fill="none" xmlns="http://www.w3.org/2000/svg">
<path d="M5.01602 10.1442C4.36802 10.1442 3.76402 10.0402 3.20402 9.83215C2.65202 9.61615 2.17202 9.31215 1.76402 8.92015C1.35602 8.52815 1.03602 8.06815 0.804018 7.54015C0.580018 7.01215 0.468018 6.43215 0.468018 5.80015C0.468018 5.16815 0.580018 4.58815 0.804018 4.06015C1.03602 3.53215 1.35602 3.07215 1.76402 2.68015C2.18002 2.28815 2.66402 1.98815 3.21602 1.78015C3.76802 1.56415 4.37202 1.45615 5.02802 1.45615C5.75602 1.45615 6.41202 1.58415 6.99602 1.84015C7.58802 2.08815 8.08402 2.45615 8.48402 2.94415L7.23602 4.09615C6.94802 3.76815 6.62802 3.52415 6.27602 3.36415C5.92402 3.19615 5.54002 3.11215 5.12402 3.11215C4.73202 3.11215 4.37202 3.17615 4.04402 3.30415C3.71602 3.43215 3.43202 3.61615 3.19202 3.85615C2.95202 4.09615 2.76402 4.38015 2.62802 4.70815C2.50002 5.03615 2.43602 5.40015 2.43602 5.80015C2.43602 6.20015 2.50002 6.56415 2.62802 6.89215C2.76402 7.22015 2.95202 7.50415 3.19202 7.74415C3.43202 7.98415 3.71602 8.16815 4.04402 8.29615C4.37202 8.42415 4.73202 8.48815 5.12402 8.48815C5.54002 8.48815 5.92402 8.40815 6.27602 8.24815C6.62802 8.08015 6.94802 7.82815 7.23602 7.49215L8.48402 8.64415C8.08402 9.13215 7.58802 9.50415 6.99602 9.76015C6.41202 10.0162 5.75202 10.1442 5.01602 10.1442ZM12.5141 10.0962C11.8261 10.0962 11.2141 9.95215 10.6781 9.66415C10.1501 9.37615 9.73015 8.98415 9.41815 8.48815C9.11415 7.98415 8.96215 7.41215 8.96215 6.77215C8.96215 6.12415 9.11415 5.55215 9.41815 5.05615C9.73015 4.55215 10.1501 4.16015 10.6781 3.88015C11.2141 3.59215 11.8261 3.44815 12.5141 3.44815C13.1941 3.44815 13.8021 3.59215 14.3381 3.88015C14.8741 4.16015 15.2941 4.54815 15.5981 5.04415C15.9021 5.54015 16.0541 6.11615 16.0541 6.77215C16.0541 7.41215 15.9021 7.98415 15.5981 8.48815C15.2941 8.98415 14.8741 9.37615 14.3381 9.66415C13.8021 9.95215 13.1941 10.0962 12.5141 10.0962ZM12.5141 8.56015C12.8261 8.56015 13.1061 8.48815 13.3541 8.34415C13.6021 8.20015 13.7981 7.99615 13.9421 7.73215C14.0861 7.46015 14.1581 7.14015 14.1581 6.77215C14.1581 6.39615 14.0861 6.07615 13.9421 5.81215C13.7981 5.54815 13.6021 5.34415 13.3541 5.20015C13.1061 5.05615 12.8261 4.98415 12.5141 4.98415C12.2021 4.98415 11.9221 5.05615 11.6741 5.20015C11.4261 5.34415 11.2261 5.54815 11.0741 5.81215C10.9301 6.07615 10.8581 6.39615 10.8581 6.77215C10.8581 7.14015 10.9301 7.46015 11.0741 7.73215C11.2261 7.99615 11.4261 8.20015 11.6741 8.34415C11.9221 8.48815 12.2021 8.56015 12.5141 8.56015ZM21.2294 3.44815C21.7414 3.44815 22.1974 3.55215 22.5974 3.76015C23.0054 3.96015 23.3254 4.27215 23.5574 4.69615C23.7894 5.11215 23.9054 5.64815 23.9054 6.30415V10.0002H22.0334V6.59215C22.0334 6.07215 21.9174 5.68815 21.6854 5.44015C21.4614 5.19215 21.1414 5.06815 20.7254 5.06815C20.4294 5.06815 20.1614 5.13215 19.9214 5.26015C19.6894 5.38015 19.5054 5.56815 19.3694 5.82415C19.2414 6.08015 19.1774 6.40815 19.1774 6.80815V10.0002H17.3054V3.54415H19.0934V5.33215L18.7574 4.79215C18.9894 4.36015 19.3214 4.02815 19.7534 3.79615C20.1854 3.56415 20.6774 3.44815 21.2294 3.44815ZM28.2423 10.0962C27.4823 10.0962 26.8903 9.90415 26.4663 9.52015C26.0423 9.12815 25.8303 8.54815 25.8303 7.78015V2.11615H27.7023V7.75615C27.7023 8.02815 27.7743 8.24015 27.9183 8.39215C28.0623 8.53615 28.2583 8.60815 28.5063 8.60815C28.8023 8.60815 29.0543 8.52815 29.2623 8.36815L29.7663 9.68815C29.5743 9.82415 29.3423 9.92815 29.0703 10.0002C28.8063 10.0642 28.5303 10.0962 28.2423 10.0962ZM24.8343 5.12815V3.68815H29.3103V5.12815H24.8343ZM33.8219 10.0962C33.0859 10.0962 32.4379 9.95215 31.8779 9.66415C31.3259 9.37615 30.8979 8.98415 30.5939 8.48815C30.2899 7.98415 30.1379 7.41215 30.1379 6.77215C30.1379 6.12415 30.2859 5.55215 30.5819 5.05615C30.8859 4.55215 31.2979 4.16015 31.8179 3.88015C32.3379 3.59215 32.9259 3.44815 33.5819 3.44815C34.2139 3.44815 34.7819 3.58415 35.2859 3.85615C35.7979 4.12015 36.2019 4.50415 36.4979 5.00815C36.7939 5.50415 36.9419 6.10015 36.9419 6.79615C36.9419 6.86815 36.9379 6.95215 36.9299 7.04815C36.9219 7.13615 36.9139 7.22015 36.9059 7.30015H31.6619V6.20815H35.9219L35.2019 6.53215C35.2019 6.19615 35.1339 5.90415 34.9979 5.65615C34.8619 5.40815 34.6739 5.21615 34.4339 5.08015C34.1939 4.93615 33.9139 4.86415 33.5939 4.86415C33.2739 4.86415 32.9899 4.93615 32.7419 5.08015C32.5019 5.21615 32.3139 5.41215 32.1779 5.66815C32.0419 5.91615 31.9739 6.21215 31.9739 6.55615V6.84415C31.9739 7.19615 32.0499 7.50815 32.2019 7.78015C32.3619 8.04415 32.5819 8.24815 32.8619 8.39215C33.1499 8.52815 33.4859 8.59615 33.8699 8.59615C34.2139 8.59615 34.5139 8.54415 34.7699 8.44015C35.0339 8.33615 35.2739 8.18015 35.4899 7.97215L36.4859 9.05215C36.1899 9.38815 35.8179 9.64815 35.3699 9.83215C34.9219 10.0082 34.4059 10.0962 33.8219 10.0962ZM42.1122 3.44815C42.6242 3.44815 43.0802 3.55215 43.4802 3.76015C43.8882 3.96015 44.2082 4.27215 44.4402 4.69615C44.6722 5.11215 44.7882 5.64815 44.7882 6.30415V10.0002H42.9162V6.59215C42.9162 6.07215 42.8002 5.68815 42.5682 5.44015C42.3442 5.19215 42.0242 5.06815 41.6082 5.06815C41.3122 5.06815 41.0442 5.13215 40.8042 5.26015C40.5722 5.38015 40.3882 5.56815 40.2522 5.82415C40.1242 6.08015 40.0602 6.40815 40.0602 6.80815V10.0002H38.1882V3.54415H39.9762V5.33215L39.6402 4.79215C39.8722 4.36015 40.2042 4.02815 40.6362 3.79615C41.0682 3.56415 41.5602 3.44815 42.1122 3.44815ZM49.1251 10.0962C48.3651 10.0962 47.7731 9.90415 47.3491 9.52015C46.9251 9.12815 46.7131 8.54815 46.7131 7.78015V2.11615H48.5851V7.75615C48.5851 8.02815 48.6571 8.24015 48.8011 8.39215C48.9451 8.53615 49.1411 8.60815 49.3891 8.60815C49.6851 8.60815 49.9371 8.52815 50.1451 8.36815L50.6491 9.68815C50.4571 9.82415 50.2251 9.92815 49.9531 10.0002C49.6891 10.0642 49.4131 10.0962 49.1251 10.0962ZM45.7171 5.12815V3.68815H50.1931V5.12815H45.7171ZM51.4931 11.8482L52.2851 8.96815L52.5491 10.0482C52.2051 10.0482 51.9211 9.94815 51.6971 9.74815C51.4811 9.54815 51.3731 9.27215 51.3731 8.92015C51.3731 8.56815 51.4851 8.28815 51.7091 8.08015C51.9331 7.87215 52.2091 7.76815 52.5371 7.76815C52.8731 7.76815 53.1491 7.87615 53.3651 8.09215C53.5811 8.30015 53.6891 8.57615 53.6891 8.92015C53.6891 9.02415 53.6811 9.12815 53.6651 9.23215C53.6491 9.32815 53.6171 9.44815 53.5691 9.59215C53.5291 9.72815 53.4611 9.90415 53.3651 10.1202L52.6811 11.8482H51.4931ZM58.4882 10.0002V1.60015H62.3042C63.2162 1.60015 64.0202 1.77615 64.7162 2.12815C65.4122 2.47215 65.9562 2.95615 66.3482 3.58015C66.7402 4.20415 66.9362 4.94415 66.9362 5.80015C66.9362 6.64815 66.7402 7.38815 66.3482 8.02015C65.9562 8.64415 65.4122 9.13215 64.7162 9.48415C64.0202 9.82815 63.2162 10.0002 62.3042 10.0002H58.4882ZM60.4322 8.40415H62.2082C62.7682 8.40415 63.2522 8.30015 63.6602 8.09215C64.0762 7.87615 64.3962 7.57215 64.6202 7.18015C64.8522 6.78815 64.9682 6.32815 64.9682 5.80015C64.9682 5.26415 64.8522 4.80415 64.6202 4.42015C64.3962 4.02815 64.0762 3.72815 63.6602 3.52015C63.2522 3.30415 62.7682 3.19615 62.2082 3.19615H60.4322V8.40415ZM71.4743 10.0962C70.7383 10.0962 70.0903 9.95215 69.5303 9.66415C68.9783 9.37615 68.5503 8.98415 68.2463 8.48815C67.9423 7.98415 67.7903 7.41215 67.7903 6.77215C67.7903 6.12415 67.9383 5.55215 68.2343 5.05615C68.5383 4.55215 68.9503 4.16015 69.4703 3.88015C69.9903 3.59215 70.5783 3.44815 71.2343 3.44815C71.8663 3.44815 72.4343 3.58415 72.9383 3.85615C73.4503 4.12015 73.8543 4.50415 74.1503 5.00815C74.4463 5.50415 74.5943 6.10015 74.5943 6.79615C74.5943 6.86815 74.5903 6.95215 74.5823 7.04815C74.5743 7.13615 74.5663 7.22015 74.5583 7.30015H69.3143V6.20815H73.5742L72.8543 6.53215C72.8543 6.19615 72.7863 5.90415 72.6503 5.65615C72.5143 5.40815 72.3263 5.21615 72.0863 5.08015C71.8463 4.93615 71.5663 4.86415 71.2463 4.86415C70.9263 4.86415 70.6423 4.93615 70.3943 5.08015C70.1543 5.21615 69.9663 5.41215 69.8303 5.66815C69.6943 5.91615 69.6263 6.21215 69.6263 6.55615V6.84415C69.6263 7.19615 69.7023 7.50815 69.8543 7.78015C70.0143 8.04415 70.2343 8.24815 70.5143 8.39215C70.8023 8.52815 71.1383 8.59615 71.5223 8.59615C71.8663 8.59615 72.1663 8.54415 72.4223 8.44015C72.6863 8.33615 72.9263 8.18015 73.1423 7.97215L74.1383 9.05215C73.8423 9.38815 73.4703 9.64815 73.0223 9.83215C72.5743 10.0082 72.0583 10.0962 71.4743 10.0962ZM78.0126 10.0962C77.4606 10.0962 76.9286 10.0322 76.4166 9.90415C75.9126 9.76815 75.5126 9.60015 75.2166 9.40015L75.8406 8.05615C76.1366 8.24015 76.4846 8.39215 76.8846 8.51215C77.2926 8.62415 77.6926 8.68015 78.0846 8.68015C78.5166 8.68015 78.8206 8.62815 78.9966 8.52415C79.1806 8.42015 79.2726 8.27615 79.2726 8.09215C79.2726 7.94015 79.2006 7.82815 79.0566 7.75615C78.9206 7.67615 78.7366 7.61615 78.5046 7.57615C78.2726 7.53615 78.0166 7.49615 77.7366 7.45615C77.4646 7.41615 77.1886 7.36415 76.9086 7.30015C76.6286 7.22815 76.3726 7.12415 76.1406 6.98815C75.9086 6.85215 75.7206 6.66815 75.5766 6.43615C75.4406 6.20415 75.3726 5.90415 75.3726 5.53615C75.3726 5.12815 75.4886 4.76815 75.7206 4.45615C75.9606 4.14415 76.3046 3.90015 76.7526 3.72415C77.2006 3.54015 77.7366 3.44815 78.3606 3.44815C78.8006 3.44815 79.2486 3.49615 79.7046 3.59215C80.1606 3.68815 80.5406 3.82815 80.8446 4.01215L80.2206 5.34415C79.9086 5.16015 79.5926 5.03615 79.2726 4.97215C78.9606 4.90015 78.6566 4.86415 78.3606 4.86415C77.9446 4.86415 77.6406 4.92015 77.4486 5.03215C77.2566 5.14415 77.1606 5.28815 77.1606 5.46415C77.1606 5.62415 77.2286 5.74415 77.3646 5.82415C77.5086 5.90415 77.6966 5.96815 77.9286 6.01615C78.1606 6.06415 78.4126 6.10815 78.6846 6.14815C78.9646 6.18015 79.2446 6.23215 79.5246 6.30415C79.8046 6.37615 80.0566 6.48015 80.2806 6.61615C80.5126 6.74415 80.7006 6.92415 80.8446 7.15615C80.9886 7.38015 81.0606 7.67615 81.0606 8.04415C81.0606 8.44415 80.9406 8.80015 80.7006 9.11215C80.4606 9.41615 80.1126 9.65615 79.6566 9.83215C79.2086 10.0082 78.6606 10.0962 78.0126 10.0962ZM82.2156 10.0002V3.54415H84.0876V10.0002H82.2156ZM83.1516 2.64415C82.8076 2.64415 82.5276 2.54415 82.3116 2.34415C82.0956 2.14415 81.9876 1.89615 81.9876 1.60015C81.9876 1.30415 82.0956 1.05615 82.3116 0.856152C82.5276 0.656152 82.8076 0.556152 83.1516 0.556152C83.4956 0.556152 83.7756 0.652152 83.9916 0.844152C84.2076 1.02815 84.3156 1.26815 84.3156 1.56415C84.3156 1.87615 84.2076 2.13615 83.9916 2.34415C83.7836 2.54415 83.5036 2.64415 83.1516 2.64415ZM88.8609 12.4242C88.2529 12.4242 87.6649 12.3482 87.0969 12.1962C86.5369 12.0522 86.0689 11.8322 85.6929 11.5362L86.4369 10.1922C86.7089 10.4162 87.0529 10.5922 87.4689 10.7202C87.8929 10.8562 88.3089 10.9242 88.7169 10.9242C89.3809 10.9242 89.8609 10.7762 90.1569 10.4802C90.4609 10.1842 90.6129 9.74415 90.6129 9.16015V8.18815L90.7329 6.56815L90.7089 4.93615V3.54415H92.4849V8.92015C92.4849 10.1202 92.1729 11.0042 91.5489 11.5722C90.9249 12.1402 90.0289 12.4242 88.8609 12.4242ZM88.5729 9.68815C87.9729 9.68815 87.4289 9.56015 86.9409 9.30415C86.4609 9.04015 86.0729 8.67615 85.7769 8.21215C85.4889 7.74015 85.3449 7.19215 85.3449 6.56815C85.3449 5.93615 85.4889 5.38815 85.7769 4.92415C86.0729 4.45215 86.4609 4.08815 86.9409 3.83215C87.4289 3.57615 87.9729 3.44815 88.5729 3.44815C89.1169 3.44815 89.5969 3.56015 90.0129 3.78415C90.4289 4.00015 90.7529 4.34015 90.9849 4.80415C91.2169 5.26015 91.3329 5.84815 91.3329 6.56815C91.3329 7.28015 91.2169 7.86815 90.9849 8.33215C90.7529 8.78815 90.4289 9.12815 90.0129 9.35215C89.5969 9.57615 89.1169 9.68815 88.5729 9.68815ZM88.9449 8.15215C89.2729 8.15215 89.5649 8.08815 89.8209 7.96015C90.0769 7.82415 90.2769 7.63615 90.4209 7.39615C90.5649 7.15615 90.6369 6.88015 90.6369 6.56815C90.6369 6.24815 90.5649 5.97215 90.4209 5.74015C90.2769 5.50015 90.0769 5.31615 89.8209 5.18815C89.5649 5.05215 89.2729 4.98415 88.9449 4.98415C88.6169 4.98415 88.3249 5.05215 88.0689 5.18815C87.8129 5.31615 87.6089 5.50015 87.4569 5.74015C87.3129 5.97215 87.2409 6.24815 87.2409 6.56815C87.2409 6.88015 87.3129 7.15615 87.4569 7.39615C87.6089 7.63615 87.8129 7.82415 88.0689 7.96015C88.3249 8.08815 88.6169 8.15215 88.9449 8.15215ZM98.1513 3.44815C98.6633 3.44815 99.1193 3.55215 99.5193 3.76015C99.9273 3.96015 100.247 4.27215 100.479 4.69615C100.711 5.11215 100.827 5.64815 100.827 6.30415V10.0002H98.9553V6.59215C98.9553 6.07215 98.8393 5.68815 98.6073 5.44015C98.3833 5.19215 98.0633 5.06815 97.6473 5.06815C97.3513 5.06815 97.0833 5.13215 96.8433 5.26015C96.6113 5.38015 96.4273 5.56815 96.2913 5.82415C96.1633 6.08015 96.0993 6.40815 96.0993 6.80815V10.0002H94.2273V3.54415H96.0153V5.33215L95.6793 4.79215C95.9113 4.36015 96.2433 4.02815 96.6753 3.79615C97.1073 3.56415 97.5993 3.44815 98.1513 3.44815ZM109.883 10.0002V8.74015L109.763 8.46415V6.20815C109.763 5.80815 109.639 5.49615 109.391 5.27215C109.151 5.04815 108.779 4.93615 108.275 4.93615C107.931 4.93615 107.591 4.99215 107.255 5.10415C106.927 5.20815 106.647 5.35215 106.415 5.53615L105.743 4.22815C106.095 3.98015 106.519 3.78815 107.015 3.65215C107.511 3.51615 108.015 3.44815 108.527 3.44815C109.511 3.44815 110.275 3.68015 110.819 4.14415C111.363 4.60815 111.635 5.33215 111.635 6.31615V10.0002H109.883ZM107.915 10.0962C107.411 10.0962 106.979 10.0122 106.619 9.84415C106.259 9.66815 105.983 9.43215 105.791 9.13615C105.599 8.84015 105.503 8.50815 105.503 8.14015C105.503 7.75615 105.595 7.42015 105.779 7.13215C105.971 6.84415 106.271 6.62015 106.679 6.46015C107.087 6.29215 107.619 6.20815 108.275 6.20815H109.991V7.30015H108.479C108.039 7.30015 107.735 7.37215 107.567 7.51615C107.407 7.66015 107.327 7.84015 107.327 8.05615C107.327 8.29615 107.419 8.48815 107.603 8.63215C107.795 8.76815 108.055 8.83615 108.383 8.83615C108.695 8.83615 108.975 8.76415 109.223 8.62015C109.471 8.46815 109.651 8.24815 109.763 7.96015L110.051 8.82415C109.915 9.24015 109.667 9.55615 109.307 9.77215C108.947 9.98815 108.483 10.0962 107.915 10.0962ZM117.253 3.44815C117.765 3.44815 118.221 3.55215 118.621 3.76015C119.029 3.96015 119.349 4.27215 119.581 4.69615C119.813 5.11215 119.929 5.64815 119.929 6.30415V10.0002H118.057V6.59215C118.057 6.07215 117.941 5.68815 117.709 5.44015C117.485 5.19215 117.165 5.06815 116.749 5.06815C116.453 5.06815 116.185 5.13215 115.945 5.26015C115.713 5.38015 115.529 5.56815 115.393 5.82415C115.265 6.08015 115.201 6.40815 115.201 6.80815V10.0002H113.329V3.54415H115.117V5.33215L114.781 4.79215C115.013 4.36015 115.345 4.02815 115.777 3.79615C116.209 3.56415 116.701 3.44815 117.253 3.44815ZM124.445 10.0962C123.837 10.0962 123.289 9.96015 122.801 9.68815C122.313 9.40815 121.925 9.02015 121.637 8.52415C121.357 8.02815 121.217 7.44415 121.217 6.77215C121.217 6.09215 121.357 5.50415 121.637 5.00815C121.925 4.51215 122.313 4.12815 122.801 3.85615C123.289 3.58415 123.837 3.44815 124.445 3.44815C124.989 3.44815 125.465 3.56815 125.873 3.80815C126.281 4.04815 126.597 4.41215 126.821 4.90015C127.045 5.38815 127.157 6.01215 127.157 6.77215C127.157 7.52415 127.049 8.14815 126.833 8.64415C126.617 9.13215 126.305 9.49615 125.897 9.73615C125.497 9.97615 125.013 10.0962 124.445 10.0962ZM124.769 8.56015C125.073 8.56015 125.349 8.48815 125.597 8.34415C125.845 8.20015 126.041 7.99615 126.185 7.73215C126.337 7.46015 126.413 7.14015 126.413 6.77215C126.413 6.39615 126.337 6.07615 126.185 5.81215C126.041 5.54815 125.845 5.34415 125.597 5.20015C125.349 5.05615 125.073 4.98415 124.769 4.98415C124.457 4.98415 124.177 5.05615 123.929 5.20015C123.681 5.34415 123.481 5.54815 123.329 5.81215C123.185 6.07615 123.113 6.39615 123.113 6.77215C123.113 7.14015 123.185 7.46015 123.329 7.73215C123.481 7.99615 123.681 8.20015 123.929 8.34415C124.177 8.48815 124.457 8.56015 124.769 8.56015ZM126.461 10.0002V8.68015L126.497 6.76015L126.377 4.85215V1.09615H128.249V10.0002H126.461ZM137.532 10.1442C136.884 10.1442 136.28 10.0402 135.72 9.83215C135.168 9.61615 134.688 9.31215 134.28 8.92015C133.872 8.52815 133.552 8.06815 133.32 7.54015C133.096 7.01215 132.984 6.43215 132.984 5.80015C132.984 5.16815 133.096 4.58815 133.32 4.06015C133.552 3.53215 133.872 3.07215 134.28 2.68015C134.696 2.28815 135.18 1.98815 135.732 1.78015C136.284 1.56415 136.888 1.45615 137.544 1.45615C138.272 1.45615 138.928 1.58415 139.512 1.84015C140.104 2.08815 140.6 2.45615 141 2.94415L139.752 4.09615C139.464 3.76815 139.144 3.52415 138.792 3.36415C138.44 3.19615 138.056 3.11215 137.64 3.11215C137.248 3.11215 136.888 3.17615 136.56 3.30415C136.232 3.43215 135.948 3.61615 135.708 3.85615C135.468 4.09615 135.28 4.38015 135.144 4.70815C135.016 5.03615 134.952 5.40015 134.952 5.80015C134.952 6.20015 135.016 6.56415 135.144 6.89215C135.28 7.22015 135.468 7.50415 135.708 7.74415C135.948 7.98415 136.232 8.16815 136.56 8.29615C136.888 8.42415 137.248 8.48815 137.64 8.48815C138.056 8.48815 138.44 8.40815 138.792 8.24815C139.144 8.08015 139.464 7.82815 139.752 7.49215L141 8.64415C140.6 9.13215 140.104 9.50415 139.512 9.76015C138.928 10.0162 138.268 10.1442 137.532 10.1442ZM145.03 10.0962C144.342 10.0962 143.73 9.95215 143.194 9.66415C142.666 9.37615 142.246 8.98415 141.934 8.48815C141.63 7.98415 141.478 7.41215 141.478 6.77215C141.478 6.12415 141.63 5.55215 141.934 5.05615C142.246 4.55215 142.666 4.16015 143.194 3.88015C143.73 3.59215 144.342 3.44815 145.03 3.44815C145.71 3.44815 146.318 3.59215 146.854 3.88015C147.39 4.16015 147.81 4.54815 148.114 5.04415C148.418 5.54015 148.57 6.11615 148.57 6.77215C148.57 7.41215 148.418 7.98415 148.114 8.48815C147.81 8.98415 147.39 9.37615 146.854 9.66415C146.318 9.95215 145.71 10.0962 145.03 10.0962ZM145.03 8.56015C145.342 8.56015 145.622 8.48815 145.87 8.34415C146.118 8.20015 146.314 7.99615 146.458 7.73215C146.602 7.46015 146.674 7.14015 146.674 6.77215C146.674 6.39615 146.602 6.07615 146.458 5.81215C146.314 5.54815 146.118 5.34415 145.87 5.20015C145.622 5.05615 145.342 4.98415 145.03 4.98415C144.718 4.98415 144.438 5.05615 144.19 5.20015C143.942 5.34415 143.742 5.54815 143.59 5.81215C143.446 6.07615 143.374 6.39615 143.374 6.77215C143.374 7.14015 143.446 7.46015 143.59 7.73215C143.742 7.99615 143.942 8.20015 144.19 8.34415C144.438 8.48815 144.718 8.56015 145.03 8.56015ZM152.593 10.0962C151.985 10.0962 151.437 9.96015 150.949 9.68815C150.461 9.40815 150.073 9.02015 149.785 8.52415C149.505 8.02815 149.365 7.44415 149.365 6.77215C149.365 6.09215 149.505 5.50415 149.785 5.00815C150.073 4.51215 150.461 4.12815 150.949 3.85615C151.437 3.58415 151.985 3.44815 152.593 3.44815C153.137 3.44815 153.613 3.56815 154.021 3.80815C154.429 4.04815 154.745 4.41215 154.969 4.90015C155.193 5.38815 155.305 6.01215 155.305 6.77215C155.305 7.52415 155.197 8.14815 154.981 8.64415C154.765 9.13215 154.453 9.49615 154.045 9.73615C153.645 9.97615 153.161 10.0962 152.593 10.0962ZM152.917 8.56015C153.221 8.56015 153.497 8.48815 153.745 8.34415C153.993 8.20015 154.189 7.99615 154.333 7.73215C154.485 7.46015 154.561 7.14015 154.561 6.77215C154.561 6.39615 154.485 6.07615 154.333 5.81215C154.189 5.54815 153.993 5.34415 153.745 5.20015C153.497 5.05615 153.221 4.98415 152.917 4.98415C152.605 4.98415 152.325 5.05615 152.077 5.20015C151.829 5.34415 151.629 5.54815 151.477 5.81215C151.333 6.07615 151.261 6.39615 151.261 6.77215C151.261 7.14015 151.333 7.46015 151.477 7.73215C151.629 7.99615 151.829 8.20015 152.077 8.34415C152.325 8.48815 152.605 8.56015 152.917 8.56015ZM154.609 10.0002V8.68015L154.645 6.76015L154.525 4.85215V1.09615H156.397V10.0002H154.609ZM161.334 10.0962C160.598 10.0962 159.95 9.95215 159.39 9.66415C158.838 9.37615 158.41 8.98415 158.106 8.48815C157.802 7.98415 157.65 7.41215 157.65 6.77215C157.65 6.12415 157.798 5.55215 158.094 5.05615C158.398 4.55215 158.81 4.16015 159.33 3.88015C159.85 3.59215 160.438 3.44815 161.094 3.44815C161.726 3.44815 162.294 3.58415 162.798 3.85615C163.31 4.12015 163.714 4.50415 164.01 5.00815C164.306 5.50415 164.454 6.10015 164.454 6.79615C164.454 6.86815 164.45 6.95215 164.442 7.04815C164.434 7.13615 164.426 7.22015 164.418 7.30015H159.174V6.20815H163.434L162.714 6.53215C162.714 6.19615 162.646 5.90415 162.51 5.65615C162.374 5.40815 162.186 5.21615 161.946 5.08015C161.706 4.93615 161.426 4.86415 161.106 4.86415C160.786 4.86415 160.502 4.93615 160.254 5.08015C160.014 5.21615 159.826 5.41215 159.69 5.66815C159.554 5.91615 159.486 6.21215 159.486 6.55615V6.84415C159.486 7.19615 159.562 7.50815 159.714 7.78015C159.874 8.04415 160.094 8.24815 160.374 8.39215C160.662 8.52815 160.998 8.59615 161.382 8.59615C161.726 8.59615 162.026 8.54415 162.282 8.44015C162.546 8.33615 162.786 8.18015 163.002 7.97215L163.998 9.05215C163.702 9.38815 163.33 9.64815 162.882 9.83215C162.434 10.0082 161.918 10.0962 161.334 10.0962ZM172.914 10.0962C172.346 10.0962 171.858 9.97615 171.45 9.73615C171.042 9.49615 170.73 9.13215 170.514 8.64415C170.298 8.14815 170.19 7.52415 170.19 6.77215C170.19 6.01215 170.302 5.38815 170.526 4.90015C170.758 4.41215 171.078 4.04815 171.486 3.80815C171.894 3.56815 172.37 3.44815 172.914 3.44815C173.522 3.44815 174.066 3.58415 174.546 3.85615C175.034 4.12815 175.418 4.51215 175.698 5.00815C175.986 5.50415 176.13 6.09215 176.13 6.77215C176.13 7.44415 175.986 8.02815 175.698 8.52415C175.418 9.02015 175.034 9.40815 174.546 9.68815C174.066 9.96015 173.522 10.0962 172.914 10.0962ZM169.098 10.0002V1.09615H170.97V4.85215L170.85 6.76015L170.886 8.68015V10.0002H169.098ZM172.59 8.56015C172.902 8.56015 173.178 8.48815 173.418 8.34415C173.666 8.20015 173.862 7.99615 174.006 7.73215C174.158 7.46015 174.234 7.14015 174.234 6.77215C174.234 6.39615 174.158 6.07615 174.006 5.81215C173.862 5.54815 173.666 5.34415 173.418 5.20015C173.178 5.05615 172.902 4.98415 172.59 4.98415C172.278 4.98415 171.998 5.05615 171.75 5.20015C171.502 5.34415 171.306 5.54815 171.162 5.81215C171.018 6.07615 170.946 6.39615 170.946 6.77215C170.946 7.14015 171.018 7.46015 171.162 7.73215C171.306 7.99615 171.502 8.20015 171.75 8.34415C171.998 8.48815 172.278 8.56015 172.59 8.56015ZM178.024 12.4242C177.688 12.4242 177.356 12.3722 177.028 12.2682C176.7 12.1642 176.432 12.0202 176.224 11.8362L176.908 10.5042C177.052 10.6322 177.216 10.7322 177.4 10.8042C177.592 10.8762 177.78 10.9122 177.964 10.9122C178.228 10.9122 178.436 10.8482 178.588 10.7202C178.748 10.6002 178.892 10.3962 179.02 10.1082L179.356 9.31615L179.5 9.11215L181.816 3.54415H183.616L180.7 10.3962C180.492 10.9162 180.252 11.3242 179.98 11.6202C179.716 11.9162 179.42 12.1242 179.092 12.2442C178.772 12.3642 178.416 12.4242 178.024 12.4242ZM179.128 10.2522L176.248 3.54415H178.18L180.412 8.94415L179.128 10.2522Z" fill="white"/>
</svg>
