<svg width="79" height="47" viewBox="0 0 79 47" fill="none" xmlns="http://www.w3.org/2000/svg">
<path d="M3.01203 10.0002L0.264038 1.60015H2.28004L4.66804 9.04015H3.66004L6.15604 1.60015H7.95603L10.356 9.04015H9.38404L11.832 1.60015H13.692L10.944 10.0002H8.85604L6.73203 3.47215H7.28403L5.10004 10.0002H3.01203ZM17.369 10.0962C16.633 10.0962 15.985 9.95215 15.425 9.66415C14.873 9.37615 14.445 8.98415 14.141 8.48815C13.837 7.98415 13.685 7.41215 13.685 6.77215C13.685 6.12415 13.833 5.55215 14.129 5.05615C14.433 4.55215 14.845 4.16015 15.365 3.88015C15.885 3.59215 16.473 3.44815 17.129 3.44815C17.761 3.44815 18.329 3.58415 18.833 3.85615C19.345 4.12015 19.749 4.50415 20.045 5.00815C20.341 5.50415 20.489 6.10015 20.489 6.79615C20.489 6.86815 20.485 6.95215 20.477 7.04815C20.469 7.13615 20.461 7.22015 20.453 7.30015H15.209V6.20815H19.469L18.749 6.53215C18.749 6.19615 18.681 5.90415 18.545 5.65615C18.409 5.40815 18.221 5.21615 17.981 5.08015C17.741 4.93615 17.461 4.86415 17.141 4.86415C16.821 4.86415 16.537 4.93615 16.289 5.08015C16.049 5.21615 15.861 5.41215 15.725 5.66815C15.589 5.91615 15.521 6.21215 15.521 6.55615V6.84415C15.521 7.19615 15.597 7.50815 15.749 7.78015C15.909 8.04415 16.129 8.24815 16.409 8.39215C16.697 8.52815 17.033 8.59615 17.417 8.59615C17.761 8.59615 18.061 8.54415 18.317 8.44015C18.581 8.33615 18.821 8.18015 19.037 7.97215L20.033 9.05215C19.737 9.38815 19.365 9.64815 18.917 9.83215C18.469 10.0082 17.953 10.0962 17.369 10.0962ZM25.551 10.0962C24.983 10.0962 24.495 9.97615 24.087 9.73615C23.679 9.49615 23.367 9.13215 23.151 8.64415C22.935 8.14815 22.827 7.52415 22.827 6.77215C22.827 6.01215 22.939 5.38815 23.163 4.90015C23.395 4.41215 23.715 4.04815 24.123 3.80815C24.531 3.56815 25.007 3.44815 25.551 3.44815C26.159 3.44815 26.703 3.58415 27.183 3.85615C27.671 4.12815 28.055 4.51215 28.335 5.00815C28.623 5.50415 28.767 6.09215 28.767 6.77215C28.767 7.44415 28.623 8.02815 28.335 8.52415C28.055 9.02015 27.671 9.40815 27.183 9.68815C26.703 9.96015 26.159 10.0962 25.551 10.0962ZM21.735 10.0002V1.09615H23.607V4.85215L23.487 6.76015L23.523 8.68015V10.0002H21.735ZM25.227 8.56015C25.539 8.56015 25.815 8.48815 26.055 8.34415C26.303 8.20015 26.499 7.99615 26.643 7.73215C26.795 7.46015 26.871 7.14015 26.871 6.77215C26.871 6.39615 26.795 6.07615 26.643 5.81215C26.499 5.54815 26.303 5.34415 26.055 5.20015C25.815 5.05615 25.539 4.98415 25.227 4.98415C24.915 4.98415 24.635 5.05615 24.387 5.20015C24.139 5.34415 23.943 5.54815 23.799 5.81215C23.655 6.07615 23.583 6.39615 23.583 6.77215C23.583 7.14015 23.655 7.46015 23.799 7.73215C23.943 7.99615 24.139 8.20015 24.387 8.34415C24.635 8.48815 24.915 8.56015 25.227 8.56015ZM32.192 10.0962C31.64 10.0962 31.108 10.0322 30.596 9.90415C30.092 9.76815 29.692 9.60015 29.396 9.40015L30.02 8.05615C30.316 8.24015 30.664 8.39215 31.064 8.51215C31.472 8.62415 31.872 8.68015 32.264 8.68015C32.696 8.68015 33 8.62815 33.176 8.52415C33.36 8.42015 33.452 8.27615 33.452 8.09215C33.452 7.94015 33.38 7.82815 33.236 7.75615C33.1 7.67615 32.916 7.61615 32.684 7.57615C32.452 7.53615 32.196 7.49615 31.916 7.45615C31.644 7.41615 31.368 7.36415 31.088 7.30015C30.808 7.22815 30.552 7.12415 30.32 6.98815C30.088 6.85215 29.9 6.66815 29.756 6.43615C29.62 6.20415 29.552 5.90415 29.552 5.53615C29.552 5.12815 29.668 4.76815 29.9 4.45615C30.14 4.14415 30.484 3.90015 30.932 3.72415C31.38 3.54015 31.916 3.44815 32.54 3.44815C32.98 3.44815 33.428 3.49615 33.884 3.59215C34.34 3.68815 34.72 3.82815 35.024 4.01215L34.4 5.34415C34.088 5.16015 33.772 5.03615 33.452 4.97215C33.14 4.90015 32.836 4.86415 32.54 4.86415C32.124 4.86415 31.82 4.92015 31.628 5.03215C31.436 5.14415 31.34 5.28815 31.34 5.46415C31.34 5.62415 31.408 5.74415 31.544 5.82415C31.688 5.90415 31.876 5.96815 32.108 6.01615C32.34 6.06415 32.592 6.10815 32.864 6.14815C33.144 6.18015 33.424 6.23215 33.704 6.30415C33.984 6.37615 34.236 6.48015 34.46 6.61615C34.692 6.74415 34.88 6.92415 35.024 7.15615C35.168 7.38015 35.24 7.67615 35.24 8.04415C35.24 8.44415 35.12 8.80015 34.88 9.11215C34.64 9.41615 34.292 9.65615 33.836 9.83215C33.388 10.0082 32.84 10.0962 32.192 10.0962ZM36.395 10.0002V3.54415H38.267V10.0002H36.395ZM37.331 2.64415C36.987 2.64415 36.707 2.54415 36.491 2.34415C36.275 2.14415 36.167 1.89615 36.167 1.60015C36.167 1.30415 36.275 1.05615 36.491 0.856152C36.707 0.656152 36.987 0.556152 37.331 0.556152C37.675 0.556152 37.955 0.652154 38.171 0.844154C38.387 1.02815 38.495 1.26815 38.495 1.56415C38.495 1.87615 38.387 2.13615 38.171 2.34415C37.963 2.54415 37.683 2.64415 37.331 2.64415ZM42.645 10.0962C41.885 10.0962 41.293 9.90415 40.869 9.52015C40.445 9.12815 40.233 8.54815 40.233 7.78015V2.11615H42.105V7.75615C42.105 8.02815 42.177 8.24015 42.321 8.39215C42.465 8.53615 42.661 8.60815 42.909 8.60815C43.205 8.60815 43.457 8.52815 43.665 8.36815L44.169 9.68815C43.977 9.82415 43.745 9.92815 43.473 10.0002C43.209 10.0642 42.933 10.0962 42.645 10.0962ZM39.237 5.12815V3.68815H43.713V5.12815H39.237ZM48.224 10.0962C47.488 10.0962 46.84 9.95215 46.28 9.66415C45.728 9.37615 45.3 8.98415 44.996 8.48815C44.692 7.98415 44.54 7.41215 44.54 6.77215C44.54 6.12415 44.688 5.55215 44.984 5.05615C45.288 4.55215 45.7 4.16015 46.22 3.88015C46.74 3.59215 47.328 3.44815 47.984 3.44815C48.616 3.44815 49.184 3.58415 49.688 3.85615C50.2 4.12015 50.604 4.50415 50.9 5.00815C51.196 5.50415 51.344 6.10015 51.344 6.79615C51.344 6.86815 51.34 6.95215 51.332 7.04815C51.324 7.13615 51.316 7.22015 51.308 7.30015H46.064V6.20815H50.324L49.604 6.53215C49.604 6.19615 49.536 5.90415 49.4 5.65615C49.264 5.40815 49.076 5.21615 48.836 5.08015C48.596 4.93615 48.316 4.86415 47.996 4.86415C47.676 4.86415 47.392 4.93615 47.144 5.08015C46.904 5.21615 46.716 5.41215 46.58 5.66815C46.444 5.91615 46.376 6.21215 46.376 6.55615V6.84415C46.376 7.19615 46.452 7.50815 46.604 7.78015C46.764 8.04415 46.984 8.24815 47.264 8.39215C47.552 8.52815 47.888 8.59615 48.272 8.59615C48.616 8.59615 48.916 8.54415 49.172 8.44015C49.436 8.33615 49.676 8.18015 49.892 7.97215L50.888 9.05215C50.592 9.38815 50.22 9.64815 49.772 9.83215C49.324 10.0082 48.808 10.0962 48.224 10.0962ZM54.763 10.0962C54.211 10.0962 53.679 10.0322 53.167 9.90415C52.663 9.76815 52.263 9.60015 51.967 9.40015L52.591 8.05615C52.887 8.24015 53.235 8.39215 53.635 8.51215C54.043 8.62415 54.443 8.68015 54.835 8.68015C55.267 8.68015 55.571 8.62815 55.747 8.52415C55.931 8.42015 56.023 8.27615 56.023 8.09215C56.023 7.94015 55.951 7.82815 55.807 7.75615C55.671 7.67615 55.487 7.61615 55.255 7.57615C55.023 7.53615 54.767 7.49615 54.487 7.45615C54.215 7.41615 53.939 7.36415 53.659 7.30015C53.379 7.22815 53.123 7.12415 52.891 6.98815C52.659 6.85215 52.471 6.66815 52.327 6.43615C52.191 6.20415 52.123 5.90415 52.123 5.53615C52.123 5.12815 52.239 4.76815 52.471 4.45615C52.711 4.14415 53.055 3.90015 53.503 3.72415C53.951 3.54015 54.487 3.44815 55.111 3.44815C55.551 3.44815 55.999 3.49615 56.455 3.59215C56.911 3.68815 57.291 3.82815 57.595 4.01215L56.971 5.34415C56.659 5.16015 56.343 5.03615 56.023 4.97215C55.711 4.90015 55.407 4.86415 55.111 4.86415C54.695 4.86415 54.391 4.92015 54.199 5.03215C54.007 5.14415 53.911 5.28815 53.911 5.46415C53.911 5.62415 53.979 5.74415 54.115 5.82415C54.259 5.90415 54.447 5.96815 54.679 6.01615C54.911 6.06415 55.163 6.10815 55.435 6.14815C55.715 6.18015 55.995 6.23215 56.275 6.30415C56.555 6.37615 56.807 6.48015 57.031 6.61615C57.263 6.74415 57.451 6.92415 57.595 7.15615C57.739 7.38015 57.811 7.67615 57.811 8.04415C57.811 8.44415 57.691 8.80015 57.451 9.11215C57.211 9.41615 56.863 9.65615 56.407 9.83215C55.959 10.0082 55.411 10.0962 54.763 10.0962ZM0.99604 28.0002V19.6002H2.60403L6.18003 25.5282H5.32804L8.84403 19.6002H10.44L10.464 28.0002H8.64004L8.62804 22.3962H8.96404L6.15604 27.1122H5.28004L2.41204 22.3962H2.82004V28.0002H0.99604ZM16.285 28.0002V26.7402L16.165 26.4641V24.2082C16.165 23.8082 16.041 23.4962 15.793 23.2722C15.553 23.0482 15.181 22.9361 14.677 22.9361C14.333 22.9361 13.993 22.9921 13.657 23.1041C13.329 23.2081 13.049 23.3522 12.817 23.5362L12.145 22.2281C12.497 21.9802 12.921 21.7882 13.417 21.6522C13.913 21.5162 14.417 21.4482 14.929 21.4482C15.913 21.4482 16.677 21.6801 17.221 22.1441C17.765 22.6082 18.037 23.3322 18.037 24.3162V28.0002H16.285ZM14.317 28.0962C13.813 28.0962 13.381 28.0122 13.021 27.8442C12.661 27.6682 12.385 27.4322 12.193 27.1362C12.001 26.8402 11.905 26.5082 11.905 26.1402C11.905 25.7562 11.997 25.4202 12.181 25.1322C12.373 24.8442 12.673 24.6202 13.081 24.4602C13.489 24.2922 14.021 24.2082 14.677 24.2082H16.393V25.3002H14.881C14.441 25.3002 14.137 25.3722 13.969 25.5162C13.809 25.6602 13.729 25.8402 13.729 26.0562C13.729 26.2962 13.821 26.4882 14.005 26.6322C14.197 26.7682 14.457 26.8362 14.785 26.8362C15.097 26.8362 15.377 26.7642 15.625 26.6202C15.873 26.4682 16.053 26.2482 16.165 25.9602L16.453 26.8242C16.317 27.2402 16.069 27.5562 15.709 27.7722C15.349 27.9882 14.885 28.0962 14.317 28.0962ZM19.731 28.0002V21.5442H21.519V23.3681L21.267 22.8401C21.459 22.3841 21.767 22.0402 22.191 21.8082C22.615 21.5682 23.131 21.4482 23.739 21.4482V23.1762C23.659 23.1682 23.587 23.1642 23.523 23.1642C23.459 23.1562 23.391 23.1522 23.319 23.1522C22.807 23.1522 22.391 23.3002 22.071 23.5962C21.759 23.8842 21.603 24.3362 21.603 24.9522V28.0002H19.731ZM26.412 26.6802L26.46 24.4002L29.472 21.5442H31.704L28.812 24.4842L27.84 25.2762L26.412 26.6802ZM24.864 28.0002V19.0962H26.736V28.0002H24.864ZM29.676 28.0002L27.492 25.2882L28.668 23.8362L31.944 28.0002H29.676ZM35.72 28.0962C34.984 28.0962 34.336 27.9522 33.776 27.6642C33.224 27.3762 32.796 26.9842 32.492 26.4882C32.188 25.9842 32.036 25.4122 32.036 24.7722C32.036 24.1242 32.184 23.5522 32.48 23.0562C32.784 22.5522 33.196 22.1602 33.716 21.8801C34.236 21.5921 34.824 21.4482 35.48 21.4482C36.112 21.4482 36.68 21.5842 37.184 21.8562C37.696 22.1202 38.1 22.5042 38.396 23.0082C38.692 23.5042 38.84 24.1002 38.84 24.7962C38.84 24.8682 38.836 24.9521 38.828 25.0481C38.82 25.1361 38.812 25.2202 38.804 25.3002H33.56V24.2082H37.82L37.1 24.5322C37.1 24.1961 37.032 23.9042 36.896 23.6562C36.76 23.4082 36.572 23.2162 36.332 23.0802C36.092 22.9362 35.812 22.8642 35.492 22.8642C35.172 22.8642 34.888 22.9362 34.64 23.0802C34.4 23.2162 34.212 23.4122 34.076 23.6682C33.94 23.9162 33.872 24.2122 33.872 24.5562V24.8442C33.872 25.1962 33.948 25.5082 34.1 25.7802C34.26 26.0442 34.48 26.2482 34.76 26.3922C35.048 26.5282 35.384 26.5962 35.768 26.5962C36.112 26.5962 36.412 26.5442 36.668 26.4402C36.932 26.3362 37.172 26.1802 37.388 25.9722L38.384 27.0522C38.088 27.3882 37.716 27.6482 37.268 27.8322C36.82 28.0082 36.304 28.0962 35.72 28.0962ZM42.727 28.0962C41.967 28.0962 41.375 27.9042 40.951 27.5201C40.527 27.1281 40.315 26.5482 40.315 25.7802V20.1161H42.187V25.7561C42.187 26.0281 42.259 26.2402 42.403 26.3922C42.547 26.5361 42.743 26.6082 42.991 26.6082C43.287 26.6082 43.539 26.5281 43.747 26.3681L44.251 27.6882C44.059 27.8242 43.827 27.9282 43.555 28.0002C43.291 28.0642 43.015 28.0962 42.727 28.0962ZM39.319 23.1282V21.6882H43.795V23.1282H39.319ZM45.302 28.0002V21.5442H47.174V28.0002H45.302ZM46.238 20.6441C45.894 20.6441 45.614 20.5442 45.398 20.3442C45.182 20.1442 45.074 19.8962 45.074 19.6002C45.074 19.3042 45.182 19.0562 45.398 18.8562C45.614 18.6562 45.894 18.5562 46.238 18.5562C46.582 18.5562 46.862 18.6522 47.078 18.8442C47.294 19.0282 47.402 19.2682 47.402 19.5642C47.402 19.8762 47.294 20.1362 47.078 20.3442C46.87 20.5442 46.59 20.6441 46.238 20.6441ZM52.835 21.4482C53.347 21.4482 53.803 21.5522 54.203 21.7602C54.611 21.9602 54.931 22.2722 55.163 22.6962C55.395 23.1122 55.511 23.6482 55.511 24.3042V28.0002H53.639V24.5922C53.639 24.0722 53.523 23.6882 53.291 23.4402C53.067 23.1922 52.747 23.0682 52.331 23.0682C52.035 23.0682 51.767 23.1322 51.527 23.2602C51.295 23.3802 51.111 23.5681 50.975 23.8242C50.847 24.0802 50.783 24.4082 50.783 24.8082V28.0002H48.911V21.5442H50.699V23.3322L50.363 22.7922C50.595 22.3602 50.927 22.0282 51.359 21.7962C51.791 21.5641 52.283 21.4482 52.835 21.4482ZM60.291 30.4242C59.683 30.4242 59.095 30.3482 58.527 30.1962C57.967 30.0522 57.499 29.8322 57.123 29.5362L57.867 28.1922C58.139 28.4162 58.483 28.5922 58.899 28.7202C59.323 28.8562 59.739 28.9242 60.147 28.9242C60.811 28.9242 61.291 28.7762 61.587 28.4802C61.891 28.1842 62.043 27.7442 62.043 27.1602V26.1882L62.163 24.5682L62.139 22.9361V21.5442H63.915V26.9202C63.915 28.1202 63.603 29.0042 62.979 29.5722C62.355 30.1402 61.459 30.4242 60.291 30.4242ZM60.003 27.6882C59.403 27.6882 58.859 27.5602 58.371 27.3042C57.891 27.0402 57.503 26.6762 57.207 26.2122C56.919 25.7402 56.775 25.1922 56.775 24.5682C56.775 23.9362 56.919 23.3882 57.207 22.9242C57.503 22.4522 57.891 22.0882 58.371 21.8322C58.859 21.5762 59.403 21.4482 60.003 21.4482C60.547 21.4482 61.027 21.5601 61.443 21.7841C61.859 22.0001 62.183 22.3402 62.415 22.8042C62.647 23.2602 62.763 23.8482 62.763 24.5682C62.763 25.2802 62.647 25.8682 62.415 26.3322C62.183 26.7882 61.859 27.1281 61.443 27.3521C61.027 27.5762 60.547 27.6882 60.003 27.6882ZM60.375 26.1522C60.703 26.1522 60.995 26.0882 61.251 25.9602C61.507 25.8242 61.707 25.6362 61.851 25.3962C61.995 25.1562 62.067 24.8802 62.067 24.5682C62.067 24.2482 61.995 23.9722 61.851 23.7402C61.707 23.5002 61.507 23.3162 61.251 23.1882C60.995 23.0522 60.703 22.9842 60.375 22.9842C60.047 22.9842 59.755 23.0522 59.499 23.1882C59.243 23.3162 59.039 23.5002 58.887 23.7402C58.743 23.9722 58.671 24.2482 58.671 24.5682C58.671 24.8802 58.743 25.1562 58.887 25.3962C59.039 25.6362 59.243 25.8242 59.499 25.9602C59.755 26.0882 60.047 26.1522 60.375 26.1522ZM3.75603 46.1441C3.08403 46.1441 2.44004 46.0561 1.82404 45.8801C1.20804 45.6962 0.712037 45.4601 0.336037 45.1721L0.99604 43.7082C1.35604 43.9642 1.78004 44.1762 2.26804 44.3442C2.76404 44.5042 3.26404 44.5842 3.76804 44.5842C4.15204 44.5842 4.46004 44.5481 4.69204 44.4762C4.93204 44.3961 5.10804 44.2882 5.22004 44.1522C5.33204 44.0162 5.38804 43.8601 5.38804 43.6842C5.38804 43.4602 5.30003 43.2841 5.12403 43.1562C4.94803 43.0201 4.71603 42.9122 4.42803 42.8322C4.14003 42.7442 3.82004 42.6642 3.46804 42.5922C3.12404 42.5122 2.77604 42.4162 2.42404 42.3042C2.08004 42.1922 1.76404 42.0482 1.47604 41.8722C1.18804 41.6962 0.952036 41.4642 0.768036 41.1762C0.592036 40.8882 0.504036 40.5202 0.504036 40.0722C0.504036 39.5922 0.632039 39.1562 0.888039 38.7642C1.15204 38.3642 1.54404 38.0482 2.06404 37.8162C2.59204 37.5762 3.25204 37.4562 4.04404 37.4562C4.57204 37.4562 5.09204 37.5202 5.60404 37.6482C6.11604 37.7682 6.56804 37.9521 6.96004 38.2001L6.36004 39.6762C5.96804 39.4522 5.57604 39.2882 5.18404 39.1842C4.79204 39.0722 4.40804 39.0162 4.03204 39.0162C3.65604 39.0162 3.34804 39.0602 3.10804 39.1482C2.86804 39.2362 2.69604 39.3522 2.59204 39.4962C2.48804 39.6322 2.43604 39.7922 2.43604 39.9762C2.43604 40.1922 2.52403 40.3681 2.70004 40.5042C2.87604 40.6321 3.10803 40.7362 3.39603 40.8162C3.68403 40.8962 4.00003 40.9762 4.34403 41.0562C4.69603 41.1362 5.04404 41.2282 5.38804 41.3322C5.74004 41.4362 6.06005 41.5762 6.34805 41.7522C6.63605 41.9282 6.86804 42.1602 7.04404 42.4482C7.22804 42.7361 7.32005 43.1002 7.32005 43.5402C7.32005 44.0122 7.18803 44.4442 6.92403 44.8362C6.66003 45.2281 6.26403 45.5441 5.73603 45.7841C5.21603 46.0242 4.55604 46.1441 3.75603 46.1441ZM11.588 46.0962C10.9 46.0962 10.288 45.9522 9.75204 45.6642C9.22404 45.3762 8.80404 44.9841 8.49204 44.4882C8.18804 43.9841 8.03603 43.4122 8.03603 42.7722C8.03603 42.1242 8.18804 41.5522 8.49204 41.0562C8.80404 40.5522 9.22404 40.1601 9.75204 39.8801C10.288 39.5922 10.9 39.4482 11.588 39.4482C12.268 39.4482 12.876 39.5922 13.412 39.8801C13.948 40.1601 14.368 40.5482 14.672 41.0442C14.976 41.5401 15.128 42.1162 15.128 42.7722C15.128 43.4122 14.976 43.9841 14.672 44.4882C14.368 44.9841 13.948 45.3762 13.412 45.6642C12.876 45.9522 12.268 46.0962 11.588 46.0962ZM11.588 44.5602C11.9 44.5602 12.18 44.4882 12.428 44.3442C12.676 44.2002 12.872 43.9962 13.016 43.7322C13.16 43.4602 13.232 43.1402 13.232 42.7722C13.232 42.3962 13.16 42.0761 13.016 41.8121C12.872 41.5481 12.676 41.3442 12.428 41.2001C12.18 41.0561 11.9 40.9842 11.588 40.9842C11.276 40.9842 10.996 41.0561 10.748 41.2001C10.5 41.3442 10.3 41.5481 10.148 41.8121C10.004 42.0761 9.93204 42.3962 9.93204 42.7722C9.93204 43.1402 10.004 43.4602 10.148 43.7322C10.3 43.9962 10.5 44.2002 10.748 44.3442C10.996 44.4882 11.276 44.5602 11.588 44.5602ZM19.5 46.0962C18.804 46.0962 18.184 45.9562 17.64 45.6762C17.096 45.3882 16.668 44.9922 16.356 44.4882C16.052 43.9841 15.9 43.4122 15.9 42.7722C15.9 42.1242 16.052 41.5522 16.356 41.0562C16.668 40.5522 17.096 40.1601 17.64 39.8801C18.184 39.5922 18.804 39.4482 19.5 39.4482C20.18 39.4482 20.772 39.5922 21.276 39.8801C21.78 40.1601 22.152 40.5642 22.392 41.0922L20.94 41.8722C20.772 41.5682 20.56 41.3442 20.304 41.2001C20.056 41.0561 19.784 40.9842 19.488 40.9842C19.168 40.9842 18.88 41.0561 18.624 41.2001C18.368 41.3442 18.164 41.5481 18.012 41.8121C17.868 42.0761 17.796 42.3962 17.796 42.7722C17.796 43.1482 17.868 43.4682 18.012 43.7322C18.164 43.9962 18.368 44.2002 18.624 44.3442C18.88 44.4882 19.168 44.5602 19.488 44.5602C19.784 44.5602 20.056 44.4922 20.304 44.3562C20.56 44.2122 20.772 43.9841 20.94 43.6721L22.392 44.4641C22.152 44.9841 21.78 45.3882 21.276 45.6762C20.772 45.9562 20.18 46.0962 19.5 46.0962ZM23.434 46.0002V39.5442H25.306V46.0002H23.434ZM24.37 38.6441C24.026 38.6441 23.746 38.5442 23.53 38.3442C23.314 38.1442 23.206 37.8962 23.206 37.6002C23.206 37.3041 23.314 37.0562 23.53 36.8562C23.746 36.6562 24.026 36.5562 24.37 36.5562C24.714 36.5562 24.994 36.6522 25.21 36.8442C25.426 37.0282 25.534 37.2682 25.534 37.5642C25.534 37.8762 25.426 38.1362 25.21 38.3442C25.002 38.5442 24.722 38.6441 24.37 38.6441ZM31.004 46.0002V44.7402L30.884 44.4641V42.2082C30.884 41.8082 30.76 41.4962 30.512 41.2722C30.272 41.0482 29.9 40.9361 29.396 40.9361C29.052 40.9361 28.712 40.9921 28.376 41.1041C28.048 41.2081 27.768 41.3522 27.536 41.5362L26.864 40.2281C27.216 39.9801 27.64 39.7882 28.136 39.6522C28.632 39.5162 29.136 39.4482 29.648 39.4482C30.632 39.4482 31.396 39.6801 31.94 40.1441C32.484 40.6082 32.756 41.3322 32.756 42.3162V46.0002H31.004ZM29.036 46.0962C28.532 46.0962 28.1 46.0122 27.74 45.8442C27.38 45.6682 27.104 45.4322 26.912 45.1362C26.72 44.8402 26.624 44.5082 26.624 44.1402C26.624 43.7562 26.716 43.4202 26.9 43.1322C27.092 42.8442 27.392 42.6202 27.8 42.4602C28.208 42.2922 28.74 42.2082 29.396 42.2082H31.112V43.3002H29.6C29.16 43.3002 28.856 43.3722 28.688 43.5162C28.528 43.6602 28.448 43.8402 28.448 44.0562C28.448 44.2962 28.54 44.4882 28.724 44.6322C28.916 44.7682 29.176 44.8362 29.504 44.8362C29.816 44.8362 30.096 44.7642 30.344 44.6202C30.592 44.4682 30.772 44.2481 30.884 43.9602L31.172 44.8242C31.036 45.2402 30.788 45.5562 30.428 45.7722C30.068 45.9882 29.604 46.0962 29.036 46.0962ZM34.45 46.0002V37.0962H36.322V46.0002H34.45ZM41.59 46.0002V37.6002H43.198L46.774 43.5282H45.922L49.438 37.6002H51.034L51.058 46.0002H49.234L49.222 40.3962H49.558L46.75 45.1122H45.874L43.006 40.3962H43.414V46.0002H41.59ZM56.123 46.0962C55.387 46.0962 54.739 45.9522 54.179 45.6642C53.627 45.3762 53.199 44.9841 52.895 44.4882C52.591 43.9841 52.439 43.4122 52.439 42.7722C52.439 42.1242 52.587 41.5522 52.883 41.0562C53.187 40.5522 53.599 40.1601 54.119 39.8801C54.639 39.5922 55.227 39.4482 55.883 39.4482C56.515 39.4482 57.083 39.5842 57.587 39.8562C58.099 40.1202 58.503 40.5042 58.799 41.0082C59.095 41.5042 59.243 42.1002 59.243 42.7962C59.243 42.8681 59.239 42.9521 59.231 43.0481C59.223 43.1362 59.215 43.2202 59.207 43.3002H53.963V42.2082H58.223L57.503 42.5322C57.503 42.1962 57.435 41.9042 57.299 41.6562C57.163 41.4081 56.975 41.2162 56.735 41.0802C56.495 40.9362 56.215 40.8642 55.895 40.8642C55.575 40.8642 55.291 40.9362 55.043 41.0802C54.803 41.2162 54.615 41.4122 54.479 41.6682C54.343 41.9162 54.275 42.2122 54.275 42.5562V42.8442C54.275 43.1962 54.351 43.5082 54.503 43.7802C54.663 44.0442 54.883 44.2481 55.163 44.3922C55.451 44.5282 55.787 44.5962 56.171 44.5962C56.515 44.5962 56.815 44.5442 57.071 44.4402C57.335 44.3362 57.575 44.1802 57.791 43.9722L58.787 45.0522C58.491 45.3882 58.119 45.6482 57.671 45.8322C57.223 46.0082 56.707 46.0962 56.123 46.0962ZM63.261 46.0962C62.653 46.0962 62.105 45.9602 61.617 45.6882C61.129 45.4082 60.741 45.0202 60.453 44.5242C60.173 44.0282 60.033 43.4442 60.033 42.7722C60.033 42.0922 60.173 41.5042 60.453 41.0082C60.741 40.5122 61.129 40.1282 61.617 39.8562C62.105 39.5842 62.653 39.4482 63.261 39.4482C63.805 39.4482 64.281 39.5681 64.689 39.8082C65.097 40.0482 65.413 40.4122 65.637 40.9002C65.861 41.3882 65.973 42.0122 65.973 42.7722C65.973 43.5242 65.865 44.1482 65.649 44.6441C65.433 45.1321 65.121 45.4962 64.713 45.7362C64.313 45.9762 63.829 46.0962 63.261 46.0962ZM63.585 44.5602C63.889 44.5602 64.165 44.4882 64.413 44.3442C64.661 44.2002 64.857 43.9962 65.001 43.7322C65.153 43.4602 65.229 43.1402 65.229 42.7722C65.229 42.3962 65.153 42.0761 65.001 41.8121C64.857 41.5481 64.661 41.3442 64.413 41.2001C64.165 41.0561 63.889 40.9842 63.585 40.9842C63.273 40.9842 62.993 41.0561 62.745 41.2001C62.497 41.3442 62.297 41.5481 62.145 41.8121C62.001 42.0761 61.929 42.3962 61.929 42.7722C61.929 43.1402 62.001 43.4602 62.145 43.7322C62.297 43.9962 62.497 44.2002 62.745 44.3442C62.993 44.4882 63.273 44.5602 63.585 44.5602ZM65.277 46.0002V44.6802L65.313 42.7602L65.193 40.8521V37.0962H67.065V46.0002H65.277ZM68.798 46.0002V39.5442H70.67V46.0002H68.798ZM69.734 38.6441C69.39 38.6441 69.11 38.5442 68.894 38.3442C68.678 38.1442 68.57 37.8962 68.57 37.6002C68.57 37.3041 68.678 37.0562 68.894 36.8562C69.11 36.6562 69.39 36.5562 69.734 36.5562C70.078 36.5562 70.358 36.6522 70.574 36.8442C70.79 37.0282 70.898 37.2682 70.898 37.5642C70.898 37.8762 70.79 38.1362 70.574 38.3442C70.366 38.5442 70.086 38.6441 69.734 38.6441ZM76.367 46.0002V44.7402L76.247 44.4641V42.2082C76.247 41.8082 76.123 41.4962 75.875 41.2722C75.635 41.0482 75.263 40.9361 74.759 40.9361C74.415 40.9361 74.075 40.9921 73.739 41.1041C73.411 41.2081 73.131 41.3522 72.899 41.5362L72.227 40.2281C72.579 39.9801 73.003 39.7882 73.499 39.6522C73.995 39.5162 74.499 39.4482 75.011 39.4482C75.995 39.4482 76.759 39.6801 77.303 40.1441C77.847 40.6082 78.119 41.3322 78.119 42.3162V46.0002H76.367ZM74.399 46.0962C73.895 46.0962 73.463 46.0122 73.103 45.8442C72.743 45.6682 72.467 45.4322 72.275 45.1362C72.083 44.8402 71.987 44.5082 71.987 44.1402C71.987 43.7562 72.079 43.4202 72.263 43.1322C72.455 42.8442 72.755 42.6202 73.163 42.4602C73.571 42.2922 74.103 42.2082 74.759 42.2082H76.475V43.3002H74.963C74.523 43.3002 74.219 43.3722 74.051 43.5162C73.891 43.6602 73.811 43.8402 73.811 44.0562C73.811 44.2962 73.903 44.4882 74.087 44.6322C74.279 44.7682 74.539 44.8362 74.867 44.8362C75.179 44.8362 75.459 44.7642 75.707 44.6202C75.955 44.4682 76.135 44.2481 76.247 43.9602L76.535 44.8242C76.399 45.2402 76.151 45.5562 75.791 45.7722C75.431 45.9882 74.967 46.0962 74.399 46.0962Z" fill="white"/>
</svg>
