<svg width="60" height="42" viewBox="0 0 60 42" fill="none" xmlns="http://www.w3.org/2000/svg">
<mask id="mask0_1_238" style="mask-type:luminance" maskUnits="userSpaceOnUse" x="0" y="0" width="60" height="42">
<path d="M60 0H0V42H60V0Z" fill="white"/>
</mask>
<g mask="url(#mask0_1_238)">
<path d="M50.1383 1.46717C50.153 1.51117 50.1677 1.55527 50.1828 1.60057C50.2123 1.60057 50.2417 1.60057 50.272 1.60057C50.3467 1.89307 50.3738 2.15797 50.3724 2.45917C50.3725 2.50357 50.3727 2.54796 50.3728 2.59376C50.3732 2.74186 50.3729 2.88986 50.3726 3.03796C50.3727 3.14446 50.3729 3.25096 50.373 3.35736C50.3734 3.61606 50.3733 3.87476 50.3731 4.13336C50.3729 4.34366 50.3729 4.55397 50.373 4.76427C50.373 4.80917 50.373 4.80916 50.373 4.85506C50.373 4.91596 50.3731 4.97686 50.3731 5.03786C50.3733 5.60826 50.3731 6.17876 50.3726 6.74916C50.3722 7.23826 50.3723 7.72746 50.3727 8.21656C50.3732 8.78516 50.3733 9.35387 50.3731 9.92247C50.373 9.98317 50.373 10.0438 50.373 10.1045C50.373 10.1343 50.373 10.1641 50.3729 10.1949C50.3729 10.4049 50.373 10.6149 50.3732 10.8248C50.3735 11.1075 50.3733 11.3902 50.3728 11.6729C50.3727 11.7767 50.3727 11.8804 50.3729 11.9842C50.3731 12.1258 50.3729 12.2673 50.3724 12.409C50.3726 12.45 50.3728 12.4911 50.373 12.5334C50.3713 12.8083 50.3665 13.0621 50.1745 13.2757C50.008 13.368 49.9266 13.3731 49.7373 13.3451C49.581 13.2845 49.4377 13.2049 49.2918 13.1227C49.2444 13.0963 49.1969 13.07 49.148 13.0428C48.8991 12.9025 48.653 12.7584 48.4087 12.6103C47.8634 12.2326 47.8634 12.2326 47.2424 12.144C47.0685 12.253 46.9785 12.3436 46.8931 12.5282C46.7943 12.7323 46.6776 12.9223 46.5574 13.1144C46.396 13.3747 46.2424 13.6364 46.0986 13.9068C46.0386 14.014 45.9727 14.1142 45.903 14.2155C45.7887 14.3825 45.6992 14.5537 45.6108 14.7355C45.4829 14.99 45.3364 15.2345 45.193 15.4805C45.1699 15.5202 45.1469 15.5598 45.123 15.6007C44.8598 16.0526 44.5957 16.5039 44.3298 16.9542C44.104 17.3367 43.8814 17.7209 43.6664 18.1096C43.5184 18.3759 43.3657 18.6395 43.2132 18.9032C43.1703 18.9777 43.1703 18.9777 43.1265 19.0536C42.9567 19.3472 42.7843 19.639 42.609 19.9292C42.378 20.315 42.1521 20.7032 41.9351 21.097C41.7536 21.4262 41.5612 21.7461 41.3615 22.0646C41.228 22.2815 41.0983 22.4995 40.9772 22.7236C40.7801 23.088 40.5718 23.4461 40.3655 23.8054C40.2416 24.0212 40.1179 24.2371 39.9943 24.453C39.9713 24.4932 39.9482 24.5333 39.9244 24.5747C39.9032 24.6118 39.882 24.6489 39.8601 24.687C39.8414 24.7198 39.8226 24.7525 39.8033 24.7862C39.7718 24.8421 39.7418 24.8989 39.713 24.9562C39.6836 24.9562 39.6543 24.9562 39.6239 24.9562C39.616 24.9943 39.616 24.9943 39.6078 25.0332C39.5774 25.1413 39.5351 25.2279 39.4816 25.3266C39.4611 25.3644 39.4405 25.4022 39.4194 25.4413C39.3968 25.4821 39.3743 25.523 39.351 25.5652C39.3275 25.6082 39.3038 25.6513 39.2795 25.6956C39.0713 26.0716 38.8509 26.4397 38.6278 26.8072C38.4163 27.1565 38.2131 27.5097 38.0132 27.8658C37.8142 28.2199 37.6098 28.5709 37.4043 28.9213C37.2073 29.2573 37.0131 29.5946 36.8208 29.9332C36.696 30.1524 36.5678 30.3691 36.4375 30.585C36.3321 30.7611 36.2308 30.9393 36.1293 31.1177C35.631 31.9912 35.1257 32.8606 34.621 33.7305C34.5622 33.8317 34.5035 33.933 34.4447 34.0343C34.425 34.0684 34.4052 34.1024 34.3849 34.1374C34.2646 34.3449 34.1446 34.5525 34.0248 34.7602C33.7637 35.2128 33.5023 35.6652 33.236 36.1148C33.0974 36.3496 32.9619 36.5861 32.8269 36.8231C32.612 37.2004 32.393 37.5751 32.1726 37.9492C31.8849 38.4376 31.6013 38.9282 31.3205 39.4205C31.0918 39.8215 30.8613 40.2215 30.6285 40.6201C30.5956 40.6772 30.5633 40.7347 30.5315 40.7924C30.4237 40.988 30.3382 41.0941 30.1343 41.194C29.932 41.2228 29.7968 41.2051 29.6283 41.0867C29.4592 40.9233 29.3581 40.7028 29.246 40.4988C29.2168 40.4469 29.1876 40.395 29.1583 40.3432C29.0975 40.2355 29.0371 40.1277 28.9768 40.0197C28.8382 39.7719 28.6952 39.5266 28.5526 39.281C28.497 39.1846 28.4412 39.0882 28.3856 38.9918C28.3443 38.9203 28.3443 38.9203 28.3021 38.8473C26.0466 34.9435 26.0466 34.9435 25.9631 34.7989C25.9074 34.7026 25.8517 34.6063 25.7961 34.51C25.6563 34.2679 25.5164 34.0259 25.3767 33.7838C25.2383 33.5437 25.0995 33.3038 24.9607 33.0641C24.8744 32.9147 24.7885 32.7652 24.7027 32.6156C24.6467 32.5186 24.5907 32.4215 24.5346 32.3244C24.5089 32.2794 24.4832 32.2344 24.4568 32.1881C24.4206 32.1257 24.4206 32.1257 24.3837 32.062C24.3628 32.0256 24.3418 31.9891 24.3202 31.9516C24.2302 31.8172 24.136 31.7031 23.9888 31.6321C23.8516 31.6279 23.785 31.6843 23.6741 31.7628C23.5939 31.8674 23.5939 31.8674 23.5282 31.9912C23.5019 32.0375 23.4757 32.0837 23.4487 32.1314C23.4211 32.1813 23.3935 32.2312 23.3651 32.2827C23.3356 32.3351 23.306 32.3874 23.2764 32.4397C23.2156 32.5472 23.155 32.6548 23.0945 32.7625C22.9639 32.9945 22.8289 33.2238 22.694 33.4533C22.4785 33.8214 22.2641 34.1904 22.0508 34.5598C22.023 34.6079 21.9953 34.656 21.9666 34.7056C21.827 34.9475 21.6875 35.1895 21.5482 35.4317C21.237 35.972 20.9219 36.5097 20.6026 37.0452C20.3717 37.4336 20.1464 37.8249 19.9228 38.2175C19.7049 38.6002 19.4834 38.9805 19.258 39.3589C19.0374 39.7297 18.8221 40.1035 18.608 40.4781C18.4783 40.7039 18.3469 40.9285 18.2106 41.1503C18.1871 41.1887 18.1636 41.2271 18.1394 41.2667C18.0144 41.4336 17.908 41.5387 17.6972 41.5722C17.6438 41.5722 17.5904 41.5723 17.5353 41.5723C17.5053 41.5727 17.4754 41.5729 17.4445 41.5732C17.3438 41.5739 17.2431 41.5733 17.1424 41.5727C17.0696 41.573 16.9968 41.5733 16.9239 41.5737C16.7236 41.5745 16.5233 41.5742 16.323 41.5738C16.107 41.5735 15.8911 41.5741 15.6751 41.5748C15.252 41.5757 14.8289 41.5757 14.4058 41.5753C14.062 41.5751 13.7182 41.5751 13.3744 41.5754C13.3011 41.5754 13.3011 41.5754 13.2263 41.5755C13.127 41.5756 13.0277 41.5757 12.9284 41.5757C11.9968 41.5765 11.0652 41.5761 10.1336 41.5754C9.28069 41.5747 8.4278 41.5754 7.5748 41.5766C6.6997 41.578 5.8245 41.5785 4.9493 41.578C4.8503 41.578 4.7514 41.5779 4.6525 41.5779C4.6038 41.5778 4.5551 41.5778 4.505 41.5778C4.1615 41.5777 3.818 41.5782 3.4745 41.5788C3.056 41.5796 2.6376 41.5796 2.2192 41.5786C2.0056 41.5781 1.792 41.5779 1.5784 41.5788C1.383 41.5795 1.1877 41.5792 0.992397 41.5781C0.921497 41.5779 0.850698 41.5781 0.779798 41.5786C0.683798 41.5793 0.587897 41.5787 0.491897 41.5777C0.438497 41.5777 0.385097 41.5777 0.330097 41.5777C0.195097 41.5499 0.195097 41.5499 0.0886968 41.4475C-0.0075032 41.2867 -0.0149034 41.1517 0.0168966 40.9715C0.0597966 40.8476 0.117898 40.7359 0.181098 40.6212C0.197298 40.5905 0.213498 40.5598 0.230098 40.5282C0.262398 40.4669 0.294897 40.4059 0.327697 40.3449C0.389797 40.2287 0.448498 40.1109 0.506898 39.9928C0.536598 39.9335 0.566298 39.8742 0.595998 39.8148C0.625398 39.8148 0.654798 39.8148 0.685098 39.8148C0.693198 39.7891 0.701297 39.7633 0.709697 39.7366C0.776097 39.5305 0.849197 39.3389 0.952497 39.1475C0.981897 39.1475 1.0113 39.1475 1.0416 39.1475C1.0539 39.1149 1.0662 39.0822 1.079 39.0485C1.1268 38.9344 1.18 38.8356 1.2448 38.7305C1.2683 38.6921 1.2917 38.6538 1.3158 38.6143C1.3565 38.5479 1.3565 38.5479 1.398 38.4802C1.6989 37.9845 1.9886 37.4885 2.2445 36.9677C2.2739 36.9677 2.3033 36.9677 2.3336 36.9677C2.3777 36.8576 2.3777 36.8576 2.4227 36.7453C2.4521 36.7453 2.4815 36.7453 2.5118 36.7453C2.5228 36.7196 2.5338 36.6939 2.5452 36.6674C2.6633 36.4551 2.8027 36.3655 3.0309 36.2837C3.2216 36.233 3.4111 36.238 3.6073 36.2396C3.6537 36.2395 3.7002 36.2394 3.748 36.2393C3.9031 36.239 4.0581 36.2396 4.2132 36.2402C4.3246 36.2401 4.436 36.2401 4.5474 36.2399C4.787 36.2397 5.0267 36.2398 5.2663 36.2404C5.6131 36.2411 5.96 36.2408 6.3068 36.2403C6.8701 36.2395 7.4334 36.239 7.9967 36.239C8.0304 36.239 8.0641 36.239 8.0988 36.239C8.4746 36.2391 8.8504 36.2392 9.2262 36.2395C9.26 36.2396 9.2938 36.2396 9.3286 36.2396C9.3624 36.2396 9.3961 36.2397 9.431 36.2397C9.499 36.2398 9.5671 36.2398 9.6352 36.2399C9.6688 36.2399 9.7025 36.24 9.7371 36.24C10.2984 36.2404 10.8596 36.24 11.4209 36.2389C11.7668 36.2382 12.1127 36.2383 12.4586 36.2394C12.7237 36.2401 12.9887 36.2397 13.2538 36.2388C13.3624 36.2387 13.471 36.239 13.5796 36.2396C13.728 36.2404 13.8763 36.2398 14.0246 36.239C14.0675 36.2395 14.1105 36.2401 14.1547 36.2407C14.4382 36.237 14.636 36.1766 14.8528 35.989C14.9205 35.9032 14.9743 35.8158 15.031 35.7221C15.0604 35.7221 15.0898 35.7221 15.1201 35.7221C15.1357 35.6782 15.1357 35.6782 15.1516 35.6334C15.2265 35.4594 15.321 35.3007 15.4181 35.1382C15.438 35.1045 15.4579 35.0709 15.4784 35.0362C15.5892 34.8499 15.7032 34.6663 15.8218 34.4848C15.9501 34.2866 16.0538 34.0823 16.1568 33.8701C16.2674 33.655 16.3914 33.4486 16.5153 33.241C16.6235 33.0598 16.7278 32.8777 16.827 32.6914C16.9013 32.5527 16.9791 32.4236 17.072 32.2966C17.1747 32.1703 17.1747 32.1703 17.2141 32.0296C17.2435 32.0296 17.2729 32.0296 17.3032 32.0296C17.3082 32.0051 17.3132 31.9805 17.3184 31.9553C17.3528 31.8339 17.4042 31.7303 17.4619 31.6182C17.4821 31.5784 17.5024 31.5388 17.5233 31.4979C17.5389 31.4678 17.5545 31.4378 17.5705 31.4069C17.5999 31.4069 17.6293 31.4069 17.6596 31.4069C17.6714 31.3764 17.6832 31.3459 17.6954 31.3146C17.7554 31.168 17.8211 31.0249 17.8879 30.8813C17.9119 30.8297 17.9359 30.778 17.9607 30.7247C17.9789 30.6856 17.9972 30.6464 18.016 30.6061C18.0454 30.6061 18.0748 30.6061 18.1051 30.6061C18.1151 30.5706 18.1251 30.5352 18.1354 30.4987C18.211 30.2937 18.3145 30.1115 18.4225 29.9221C18.4434 29.8851 18.4642 29.8481 18.4858 29.81C18.5368 29.7193 18.5882 29.6288 18.6398 29.5384C18.6692 29.5384 18.6985 29.5384 18.7288 29.5384C18.7337 29.5133 18.7385 29.4881 18.7435 29.4623C18.7781 29.3446 18.8304 29.2583 18.8959 29.1547C18.9897 29.0029 19.0747 28.8512 19.1521 28.6903C19.2244 28.5419 19.3034 28.4065 19.3971 28.2705C19.4892 28.1371 19.5664 28.005 19.6366 27.859C19.7441 27.6375 19.8706 27.4319 20.001 27.2232C20.4837 26.4478 20.4837 26.4478 20.9053 25.6387C20.9612 25.5249 21.0192 25.4173 21.0901 25.3121C21.1196 25.3121 21.149 25.3121 21.1793 25.3121C21.1931 25.2488 21.1931 25.2488 21.2071 25.1843C21.2743 24.9513 21.4068 24.7591 21.5357 24.5559C21.7373 24.2314 21.9366 23.9057 22.1315 23.5771C22.1506 23.5452 22.1698 23.5133 22.1895 23.4804C22.2823 23.3233 22.3653 23.1714 22.4267 22.9988C22.4561 22.9988 22.4855 22.9988 22.5158 22.9988C22.5199 22.9676 22.5239 22.9363 22.528 22.9041C22.5671 22.7497 22.6347 22.6455 22.7219 22.5123C22.8911 22.249 23.0302 21.9781 23.1643 21.6955C23.2287 21.5752 23.2287 21.5752 23.3177 21.5308C23.3444 21.483 23.3711 21.4353 23.3985 21.3862C23.4874 21.2284 23.5714 21.1072 23.7187 20.9969C23.9359 20.9625 24.0228 20.966 24.2116 21.0775C24.364 21.2232 24.4683 21.4035 24.5772 21.5824C24.647 21.6967 24.7204 21.807 24.7963 21.9172C25.0999 22.369 25.0999 22.369 25.0999 22.5539C25.1292 22.5539 25.1587 22.5539 25.1889 22.5539C25.211 22.5989 25.233 22.6439 25.2558 22.6902C25.5644 23.3109 25.5644 23.3109 25.9406 23.8917C26 23.9931 26.018 24.0844 26.0354 24.2C26.0649 24.2 26.0943 24.2 26.1246 24.2C26.1328 24.2536 26.1328 24.2536 26.1413 24.3084C26.1505 24.346 26.1596 24.3837 26.1691 24.4224C26.1985 24.4371 26.2279 24.4517 26.2582 24.4669C26.3176 24.5633 26.3735 24.6597 26.4281 24.7588C26.4602 24.8162 26.4924 24.8736 26.5246 24.9308C26.548 24.9723 26.548 24.9723 26.5717 25.0146C26.6225 25.1034 26.6763 25.1899 26.7316 25.276C26.8434 25.4511 26.9404 25.6334 27.0389 25.8162C27.0967 25.9205 27.1574 26.021 27.2216 26.1212C27.363 26.343 27.493 26.5663 27.5502 26.8247C27.5797 26.8247 27.609 26.8247 27.6393 26.8247C27.6541 26.8981 27.6687 26.9715 27.6839 27.0471C27.7133 27.0471 27.7427 27.0471 27.773 27.0471C27.7877 27.1205 27.8024 27.194 27.8176 27.2696C27.8469 27.2696 27.8764 27.2696 27.9067 27.2696C27.9514 27.3566 27.9959 27.4437 28.0403 27.5309C28.0651 27.5794 28.09 27.6279 28.1155 27.6779C28.174 27.8034 28.174 27.8034 28.174 27.8924C28.2033 27.8924 28.2328 27.8924 28.2631 27.8924C28.3967 28.1482 28.3967 28.1482 28.3967 28.2483C28.4261 28.2483 28.4555 28.2483 28.4858 28.2483C28.5069 28.2914 28.528 28.3345 28.5497 28.379C28.7284 28.7417 28.915 29.0975 29.1187 29.447C29.2432 29.6628 29.2432 29.6628 29.2432 29.7608C29.2726 29.7608 29.302 29.7608 29.3323 29.7608C29.466 30.0166 29.466 30.0166 29.466 30.1167C29.4954 30.1167 29.5248 30.1167 29.5551 30.1167C29.5702 30.1451 29.5852 30.1735 29.6007 30.2028C29.6305 30.2579 29.6305 30.2579 29.6609 30.3141C29.6805 30.3507 29.7002 30.3874 29.7204 30.4252C29.7705 30.5231 29.7705 30.5231 29.867 30.5616C30.0006 30.5764 30.0006 30.5764 30.1343 30.5616C30.1637 30.5175 30.1931 30.4735 30.2234 30.4281C30.2528 30.4281 30.2822 30.4281 30.3125 30.4281C30.3307 30.3801 30.3307 30.3801 30.3494 30.3311C30.4007 30.2078 30.4594 30.0947 30.5248 29.9782C30.5618 29.9123 30.5618 29.9123 30.5994 29.845C30.626 29.798 30.6526 29.7509 30.68 29.7024C30.7217 29.6285 30.7217 29.6285 30.7642 29.553C31.002 29.132 31.2453 28.7143 31.49 28.2973C31.8724 27.6455 32.2496 26.9908 32.6208 26.3325C32.8363 25.9506 33.0565 25.5718 33.2801 25.1945C33.6123 24.6328 33.9418 24.0699 34.2566 23.4983C34.3691 23.2949 34.4855 23.0946 34.6062 22.8959C34.9474 22.3342 35.2685 21.7608 35.5887 21.187C35.8006 20.8073 36.0126 20.4295 36.244 20.0613C36.4829 19.6813 36.7128 19.2963 36.9257 18.9012C37.2023 18.3903 37.4958 17.889 37.7897 17.3879C37.9592 17.0986 38.1251 16.8077 38.288 16.5147C38.3806 16.3494 38.4786 16.1894 38.5825 16.031C38.6984 15.8535 38.7963 15.671 38.8889 15.4805C39.0004 15.2515 39.1238 15.037 39.2637 14.824C39.5824 14.3293 39.8834 13.8208 40.1586 13.3007C40.3193 12.9994 40.4889 12.7049 40.6662 12.4132C40.8225 12.1547 40.9689 11.8912 41.1147 11.6267C41.2345 11.4098 41.3579 11.1958 41.4882 10.9849C41.5396 10.8986 41.585 10.8108 41.6288 10.7204C41.6582 10.7204 41.6876 10.7204 41.7179 10.7204C41.7215 10.6904 41.7251 10.6605 41.7289 10.6295C41.7726 10.4582 41.8533 10.3237 41.9435 10.1727C41.9602 10.144 41.9771 10.1153 41.9944 10.0857C42.0356 10.0154 42.0772 9.94516 42.1189 9.87516C42.1483 9.87516 42.1777 9.87516 42.208 9.87516C42.3247 9.53266 42.3247 9.53266 42.2971 9.18286C42.2026 9.06786 42.1151 9.01106 41.9852 8.94086C41.9852 8.91156 41.9852 8.88227 41.9852 8.85197C41.9485 8.84187 41.9117 8.83176 41.8738 8.82136C41.7201 8.76386 41.603 8.69406 41.4664 8.60556C41.3487 8.53266 41.228 8.46857 41.1053 8.40427C40.8353 8.26017 40.57 8.10896 40.3061 7.95386C40.2667 7.93116 40.2272 7.90836 40.1865 7.88496C40.1311 7.85206 40.1311 7.85206 40.0745 7.81856C40.0413 7.79906 40.0081 7.77957 39.974 7.75957C39.8482 7.66187 39.8093 7.56377 39.7854 7.40887C39.8093 7.24567 39.8643 7.19266 39.9804 7.07246C40.1328 6.96856 40.2929 6.87916 40.4537 6.78886C40.5009 6.76186 40.5481 6.73496 40.5968 6.70716C40.6969 6.64996 40.7971 6.59296 40.8974 6.53606C41.1419 6.39726 41.3853 6.25647 41.6288 6.11597C41.7262 6.05997 41.8237 6.00386 41.9211 5.94776C42.1955 5.78976 42.4692 5.63057 42.7426 5.47097C43.1618 5.22627 43.5821 4.98366 44.003 4.74156C44.326 4.55566 44.6484 4.36867 44.9703 4.18087C45.5819 3.82397 46.1959 3.47087 46.8098 3.11777C47.3396 2.81307 47.8693 2.50796 48.398 2.20116C48.4404 2.17666 48.4828 2.15216 48.5265 2.12686C48.7801 1.97936 49.029 1.82606 49.2755 1.66696C49.5642 1.48516 49.7989 1.44877 50.1383 1.46717Z" fill="white"/>
<path d="M24.1938 0.104018C24.4068 0.330918 24.5539 0.597918 24.703 0.868518C24.775 0.998718 24.8497 1.12612 24.9273 1.25312C25.0419 1.44222 25.1479 1.63512 25.2529 1.82972C25.3509 2.00782 25.4545 2.18242 25.5577 2.35762C25.6548 2.52532 25.7466 2.69572 25.8386 2.86642C25.9146 3.00252 25.9981 3.13272 26.0854 3.26192C26.1246 3.33562 26.1246 3.33562 26.1246 3.46912C26.1541 3.46912 26.1835 3.46912 26.2138 3.46912C26.2358 3.51592 26.2579 3.56272 26.2806 3.61092C26.3769 3.80352 26.4889 3.98422 26.603 4.16672C26.7179 4.35132 26.8264 4.53872 26.9322 4.72862C27.1055 5.03962 27.2841 5.34732 27.464 5.65452C27.5042 5.72332 27.5042 5.72332 27.5453 5.79342C27.6606 5.99082 27.7762 6.18802 27.8923 6.38492C27.925 6.44082 27.9577 6.49672 27.9903 6.55262C28.0177 6.59922 28.0452 6.64582 28.0735 6.69382C28.1295 6.80562 28.1295 6.80562 28.1295 6.93902C28.1589 6.93902 28.1883 6.93902 28.2186 6.93902C28.2329 6.96602 28.2472 6.99302 28.2619 7.02082C28.5605 7.58322 28.8689 8.13652 29.2056 8.67712C29.3517 8.91222 29.489 9.14992 29.6203 9.39342C29.7429 9.61852 29.8722 9.83972 30.0007 10.0615C30.0295 10.1112 30.0583 10.1609 30.0879 10.2121C30.2346 10.4656 30.382 10.7186 30.5299 10.9713C30.5713 11.0421 30.5713 11.0421 30.6136 11.1142C30.6655 11.2027 30.7175 11.2912 30.7695 11.3797C30.8875 11.5808 31.003 11.7828 31.1142 11.9878C31.2508 12.2397 31.3951 12.4866 31.5405 12.7335C31.7787 13.1393 32.015 13.5462 32.2442 13.9572C32.3543 14.1546 32.466 14.3496 32.5863 14.5409C32.856 14.977 32.9964 15.3169 32.8966 15.8364C32.8308 16.0163 32.7626 16.1925 32.5848 16.2813C32.5719 16.3198 32.5591 16.3583 32.5458 16.398C32.5007 16.5332 32.4444 16.6451 32.3718 16.7671C32.3027 16.8846 32.2378 17.0041 32.1726 17.1238C32.1379 17.1876 32.1379 17.1876 32.1024 17.2529C32.0851 17.2845 32.0679 17.3163 32.0501 17.349C32.0207 17.349 31.9913 17.349 31.961 17.349C31.9501 17.386 31.9393 17.423 31.9281 17.4611C31.8636 17.6388 31.7795 17.7944 31.6853 17.9579C31.6676 17.9892 31.6498 18.0205 31.6315 18.0527C31.5039 18.2754 31.3675 18.4913 31.2275 18.7063C31.163 18.8106 31.1088 18.915 31.0561 19.0256C30.9547 19.2351 30.8364 19.4316 30.7136 19.6289C30.6858 19.6739 30.6858 19.6739 30.6575 19.7197C30.3167 20.2609 30.3167 20.2609 30.0898 20.3296C29.9589 20.3491 29.9589 20.3491 29.8225 20.3296C29.5927 20.1439 29.472 19.8989 29.3324 19.6428C29.2809 19.5501 29.2294 19.4574 29.1777 19.3648C29.1385 19.2943 29.1385 19.2943 29.0985 19.2225C28.9801 19.0122 28.8573 18.8046 28.7338 18.5974C28.5319 18.258 28.3313 17.918 28.1323 17.5769C28.1064 17.5326 28.0805 17.4882 28.0539 17.4425C28.0013 17.3525 27.9488 17.2624 27.8963 17.1724C27.7663 16.9495 27.636 16.7266 27.5058 16.5037C27.4538 16.4147 27.4018 16.3258 27.3499 16.2368C27.3113 16.1707 27.3113 16.1707 27.2719 16.1034C25.7905 13.5676 25.7905 13.5676 25.7125 13.4341C25.6607 13.3453 25.6088 13.2566 25.557 13.1679C25.3978 12.8954 25.2387 12.6229 25.0796 12.3504C25.0269 12.2601 24.9741 12.1698 24.9212 12.0796C24.8026 11.877 24.6846 11.6743 24.5687 11.4703C24.5486 11.4354 24.5286 11.4005 24.508 11.3646C24.4715 11.301 24.4354 11.2371 24.3997 11.1731C24.2993 10.9989 24.2071 10.8655 24.0307 10.7649C23.8913 10.754 23.8913 10.754 23.7634 10.8094C23.6762 10.9005 23.6762 10.9005 23.6103 11.0291C23.5959 11.0539 23.5816 11.0787 23.5668 11.1044C23.5329 11.1634 23.4994 11.2227 23.4661 11.2822C23.3724 11.4494 23.2758 11.615 23.1797 11.7809C23.1224 11.88 23.0653 11.979 23.0083 12.0781C22.8036 12.4337 22.5953 12.787 22.385 13.1394C22.1405 13.5496 21.9003 13.9619 21.6639 14.3767C21.2345 15.1299 20.7988 15.8792 20.3503 16.6213C20.1712 16.9187 19.9983 17.2194 19.8266 17.5212C19.5798 17.9544 19.3277 18.3846 19.0757 18.8149C18.9451 19.0379 18.8148 19.2611 18.6844 19.4844C18.5291 19.7503 18.3737 20.0162 18.2182 20.282C17.949 20.742 17.681 21.2026 17.4147 21.6642C17.072 22.2581 16.7261 22.8501 16.3798 23.4418C16.3024 23.5741 16.225 23.7062 16.1477 23.8385C16.122 23.8824 16.0963 23.9263 16.0699 23.9716C15.8802 24.2963 15.6922 24.622 15.5045 24.9479C15.2764 25.3437 15.0451 25.7372 14.8111 26.1296C14.5357 26.5916 14.2667 27.0568 14.0004 27.524C13.7345 27.9904 13.4642 28.454 13.1927 28.9171C13.0857 29.0996 12.9791 29.2823 12.8725 29.465C12.6606 29.828 12.4485 30.1909 12.2354 30.5532C12.2174 30.5841 12.1993 30.6149 12.1806 30.6467C12.1087 30.7688 12.0357 30.8886 11.957 31.0064C11.9276 31.0064 11.8982 31.0064 11.8679 31.0064C11.8679 31.0358 11.8679 31.0651 11.8679 31.0954C11.5754 31.2259 11.3327 31.248 11.0145 31.2462C10.9659 31.2463 10.9174 31.2466 10.8673 31.2468C10.7075 31.2475 10.5477 31.247 10.3879 31.2466C10.2764 31.2466 10.1649 31.2468 10.0534 31.247C9.82003 31.2471 9.58663 31.2469 9.35323 31.2463C9.08413 31.2455 8.81513 31.2458 8.54603 31.2465C8.28623 31.2472 8.02643 31.2471 7.76663 31.2467C7.65643 31.2467 7.54633 31.2468 7.43623 31.2471C7.28213 31.2474 7.12813 31.2469 6.97403 31.2462C6.92883 31.2464 6.88363 31.2467 6.83693 31.247C6.56743 31.2446 6.36573 31.2101 6.12063 31.0954C6.02203 30.994 5.98893 30.9299 5.98413 30.7882C6.00693 30.4915 6.11783 30.2857 6.27383 30.0361C6.31833 29.9626 6.36283 29.8891 6.40733 29.8156C6.42713 29.7836 6.44693 29.7517 6.46723 29.7188C6.51963 29.6308 6.56613 29.5415 6.61073 29.4494C6.64013 29.4494 6.66953 29.4494 6.69983 29.4494C6.71103 29.4116 6.72223 29.3737 6.73373 29.3347C6.79263 29.1722 6.87053 29.0298 6.95883 28.8822C7.10593 28.6312 7.24213 28.3772 7.36813 28.1148C7.39753 28.1148 7.42693 28.1148 7.45723 28.1148C7.46553 28.0763 7.46553 28.0763 7.47393 28.0369C7.50213 27.9358 7.54133 27.8512 7.59093 27.7589C7.62033 27.7589 7.64963 27.7589 7.68003 27.7589C7.68923 27.724 7.69833 27.6891 7.70783 27.6532C7.77513 27.476 7.86393 27.3284 7.96313 27.1675C8.17053 26.8267 8.35083 26.4708 8.52643 26.1129C8.55593 26.1129 8.58533 26.1129 8.61563 26.1129C8.62683 26.0745 8.63813 26.0361 8.64973 25.9966C8.70753 25.8382 8.78073 25.7125 8.87173 25.5707C9.00943 25.3557 9.13363 25.1364 9.25503 24.9119C9.38463 24.6758 9.52133 24.4438 9.65703 24.2111C9.87203 23.8407 10.0832 23.4696 10.2812 23.09C10.3613 22.9389 10.4457 22.791 10.5313 22.6429C10.5608 22.6429 10.5901 22.6429 10.6204 22.6429C10.6323 22.6039 10.6441 22.5649 10.6564 22.5248C10.7079 22.3808 10.7688 22.2617 10.8468 22.1304C10.8737 22.0849 10.9005 22.0394 10.9282 21.9926C10.9562 21.9457 10.9842 21.8988 11.013 21.8505C11.0682 21.7575 11.1232 21.6645 11.1782 21.5716C11.2047 21.5267 11.2313 21.482 11.2586 21.4358C11.3607 21.2614 11.4587 21.0849 11.556 20.9079C11.6208 20.7919 11.6859 20.6761 11.7509 20.5604C11.7664 20.5327 11.782 20.505 11.7979 20.4765C11.9516 20.2032 12.1104 19.9328 12.2688 19.6623C12.3209 19.5733 12.3728 19.4844 12.4248 19.3954C12.5288 19.2174 12.6327 19.0395 12.7367 18.8615C12.7621 18.8179 12.7877 18.7742 12.8139 18.7292C12.8682 18.6363 12.9225 18.5436 12.9769 18.4508C13.0043 18.4041 13.0316 18.3573 13.0599 18.3092C13.0845 18.2673 13.1091 18.2253 13.1344 18.1821C13.2032 18.0629 13.2697 17.9427 13.3354 17.8217C13.5859 17.3598 13.8523 16.907 14.1178 16.4537C14.3646 16.0321 14.6085 15.6088 14.8507 15.1845C15.0657 14.8081 15.2817 14.4322 15.4989 14.0569C15.7302 13.6572 15.9603 13.2568 16.1895 12.8558C16.4459 12.4071 16.7038 11.9591 16.9627 11.5118C17.1664 11.1596 17.3688 10.8067 17.5706 10.4535C17.827 10.0048 18.0848 9.55702 18.3438 9.10972C18.5637 8.72942 18.7818 8.34812 18.9997 7.96662C19.2061 7.60522 19.4148 7.24512 19.6256 6.88622C19.8673 6.47452 20.1019 6.05942 20.3345 5.64252C20.4943 5.35652 20.6573 5.07282 20.8248 4.79122C21.0011 4.49422 21.1724 4.19442 21.3436 3.89452C21.6044 3.43782 21.8665 2.98182 22.1301 2.52672C22.2773 2.27262 22.4235 2.01802 22.5685 1.76262C23.5026 0.117818 23.5026 0.117819 23.7578 0.00741883C23.9295 -0.00768117 24.0542 -0.0100816 24.1938 0.104018Z" fill="white"/>
<path d="M48.3563 20.9967C48.6326 21.2359 48.8043 21.5667 48.98 21.8809C49.0239 21.9581 49.0678 22.0354 49.1117 22.1127C49.157 22.1923 49.2021 22.272 49.2471 22.3518C49.3865 22.5981 49.5287 22.8427 49.6705 23.0876C49.7263 23.184 49.7819 23.2804 49.8376 23.3768C49.8652 23.4245 49.8928 23.4722 49.9212 23.5213C50.2275 24.0515 50.5337 24.5816 50.8401 25.1118C50.8676 25.1595 50.8952 25.2072 50.9236 25.2563C50.9794 25.3528 51.0351 25.4492 51.0908 25.5457C51.2294 25.7856 51.368 26.0255 51.5068 26.2653C51.7803 26.7379 52.0529 27.211 52.3237 27.6852C52.6131 28.1921 52.9056 28.6972 53.2008 29.2007C53.296 29.3632 53.3906 29.5261 53.4845 29.6894C53.5063 29.7273 53.5282 29.7653 53.5507 29.8043C53.5907 29.8738 53.6305 29.9435 53.6703 30.0131C53.7664 30.1803 53.867 30.3421 53.9755 30.5016C54.0766 30.6513 54.161 30.8004 54.2372 30.9645C54.3879 31.273 54.5568 31.569 54.73 31.8654C54.7563 31.9105 54.7826 31.9556 54.8097 32.0021C54.9263 32.2005 55.0444 32.3955 55.1754 32.5847C55.3054 32.7758 55.4049 32.9771 55.5061 33.1846C55.6133 33.3986 55.7355 33.6032 55.8578 33.8089C55.913 33.9025 55.9681 33.9961 56.0231 34.0898C56.0516 34.1383 56.0802 34.1868 56.1095 34.2368C56.2595 34.4935 56.4067 34.7518 56.5539 35.0101C56.8005 35.4424 57.0497 35.873 57.3013 36.3025C57.5508 36.7285 57.7976 37.156 58.0443 37.5836C58.1848 37.827 58.3258 38.0701 58.4669 38.3132C58.6033 38.5481 58.7389 38.7835 58.8734 39.0195C58.9834 39.2121 59.0946 39.4039 59.2074 39.5949C59.2446 39.6579 59.2817 39.721 59.3187 39.7841C59.4212 39.9588 59.5255 40.1325 59.6317 40.305C59.6769 40.3798 59.7221 40.4545 59.7673 40.5292C59.7889 40.5636 59.8106 40.598 59.8328 40.6334C59.9699 40.8623 60.0313 41.0157 59.9844 41.2827C59.9169 41.4141 59.8368 41.5072 59.7171 41.5941C59.5423 41.6393 59.3726 41.6354 59.1928 41.6323C59.1139 41.6328 59.114 41.6328 59.0335 41.6333C58.8899 41.6339 58.7464 41.633 58.6028 41.6316C58.4521 41.6303 58.3015 41.6306 58.1508 41.6308C57.8978 41.6307 57.6449 41.6295 57.3919 41.6274C57.0999 41.6251 56.808 41.6244 56.516 41.6248C56.2346 41.6251 55.9531 41.6244 55.6717 41.6232C55.5522 41.6226 55.4326 41.6224 55.3131 41.6225C55.146 41.6223 54.979 41.6209 54.8119 41.6193C54.7626 41.6194 54.7133 41.6196 54.6625 41.6197C54.3127 41.6144 54.111 41.5575 53.8582 41.3043C53.6963 41.0936 53.5713 40.8571 53.4408 40.6265C53.3963 40.5487 53.3518 40.4708 53.3073 40.393C53.2613 40.3126 53.2154 40.232 53.1695 40.1515C53.0291 39.9051 52.8868 39.6598 52.7447 39.4143C52.689 39.3179 52.6333 39.2215 52.5776 39.1251C52.5501 39.0774 52.5225 39.0297 52.4941 38.9806C50.9069 36.2334 50.9069 36.2334 50.8233 36.0888C50.7678 35.9927 50.7123 35.8965 50.6567 35.8004C50.5152 35.5556 50.3738 35.3107 50.2323 35.0658C50.175 34.9667 50.1177 34.8674 50.0604 34.7682C50.0326 34.72 50.0048 34.6719 49.9762 34.6223C49.7886 34.2977 49.6006 33.9734 49.4124 33.6492C49.2989 33.4537 49.1865 33.2576 49.0747 33.061C49.0313 32.9855 48.9879 32.9099 48.9444 32.8345C48.9038 32.7636 48.8633 32.6926 48.8229 32.6216C48.7468 32.4879 48.6699 32.3546 48.593 32.2213C48.5564 32.1566 48.5564 32.1566 48.5191 32.0906C48.4955 32.0501 48.472 32.0095 48.4477 31.9678C48.4164 31.9133 48.4164 31.9133 48.3845 31.8577C48.2994 31.7465 48.2122 31.6936 48.089 31.6291C47.911 31.7215 47.824 31.8043 47.7252 31.9779C47.7003 32.021 47.6754 32.0642 47.6497 32.1087C47.6237 32.1551 47.5978 32.2014 47.571 32.2491C47.53 32.3208 47.53 32.3208 47.4883 32.3938C47.2764 32.7657 47.0692 33.1401 46.8641 33.5158C46.5921 34.0139 46.3093 34.5059 46.0271 34.9983C45.7868 35.4179 45.5487 35.8388 45.3107 36.2598C45.1899 36.4735 45.069 36.6872 44.948 36.9008C44.8997 36.986 44.8515 37.0713 44.8032 37.1566C44.3206 38.0092 43.8379 38.8619 43.3553 39.7146C43.3313 39.7568 43.3074 39.7991 43.2828 39.8427C43.2349 39.9272 43.187 40.0117 43.1391 40.0962C43.0119 40.3207 42.8851 40.5455 42.7589 40.7706C42.7324 40.8177 42.7059 40.8647 42.6786 40.9133C42.6277 41.004 42.5767 41.0948 42.526 41.1856C42.5031 41.2262 42.4803 41.2668 42.4567 41.3086C42.4366 41.3445 42.4165 41.3804 42.3958 41.4174C42.3417 41.5051 42.3417 41.5051 42.2526 41.5941C42.1456 41.6084 42.0436 41.6169 41.936 41.6215C41.9027 41.6232 41.8694 41.6248 41.8351 41.6265C41.361 41.6478 40.8864 41.6459 40.4121 41.6461C40.3092 41.6463 40.2063 41.6464 40.1035 41.6465C39.8895 41.6468 39.6755 41.6469 39.4615 41.6469C39.1879 41.6469 38.9143 41.6475 38.6407 41.6482C38.429 41.6487 38.2172 41.6488 38.0054 41.6488C37.9045 41.6488 37.8037 41.649 37.7028 41.6494C37.5619 41.6498 37.421 41.6497 37.2801 41.6494C37.239 41.6496 37.1979 41.6499 37.1555 41.6501C36.5162 41.6471 36.5162 41.6471 36.2993 41.4356C36.2075 41.2065 36.2318 41.0053 36.326 40.7772C36.3825 40.6673 36.4427 40.5607 36.5053 40.4541C36.5272 40.4157 36.5491 40.3772 36.5716 40.3376C36.725 40.0696 36.8823 39.8037 37.0441 39.5408C37.1407 39.3836 37.2249 39.2234 37.3073 39.0584C37.3696 38.9503 37.4326 38.8429 37.4966 38.7358C37.6921 38.4064 37.8844 38.0751 38.0758 37.7432C38.2937 37.3653 38.5126 36.9881 38.733 36.6116C38.9835 36.1836 39.2321 35.7546 39.4798 35.3249C39.6374 35.0518 39.7958 34.7793 39.9556 34.5074C40.0225 34.3914 40.0869 34.2745 40.1503 34.1565C40.2961 33.8875 40.4519 33.6249 40.6078 33.3616C40.7589 33.1063 40.9085 32.8501 41.058 32.5939C41.0961 32.5287 41.0961 32.5287 41.135 32.4622C41.1852 32.3761 41.2354 32.2901 41.2856 32.204C41.337 32.1159 41.3887 32.0278 41.4405 31.9399C41.5902 31.6854 41.7348 31.429 41.8754 31.1694C41.9828 30.9743 42.0968 30.7832 42.2108 30.592C42.2356 30.5504 42.2602 30.5088 42.2857 30.4659C42.3899 30.2904 42.4943 30.115 42.5987 29.9397C42.6755 29.8105 42.7522 29.6813 42.829 29.5521C42.8637 29.494 42.8637 29.494 42.899 29.4346C43.0402 29.197 43.1751 28.9567 43.3068 28.7137C43.5571 28.2528 43.8273 27.8024 44.0923 27.3498C44.3018 26.9915 44.5084 26.6316 44.7141 26.2712C44.919 25.9123 45.1248 25.5541 45.3356 25.1987C45.5935 24.7631 45.8454 24.3239 46.0981 23.8851C46.1631 23.7724 46.2283 23.6597 46.2937 23.5471C46.3259 23.4913 46.3582 23.4354 46.3904 23.3795C46.4169 23.3337 46.4435 23.2879 46.4708 23.2407C46.5343 23.131 46.5343 23.131 46.5742 22.9986C46.6036 22.9986 46.633 22.9986 46.6633 22.9986C46.6815 22.9506 46.6815 22.9506 46.7 22.9017C46.7517 22.7779 46.8108 22.6646 46.8768 22.5479C46.9135 22.483 46.9135 22.483 46.9509 22.4168C46.9764 22.3721 47.0018 22.3274 47.0281 22.2813C47.0527 22.2376 47.0772 22.1939 47.1026 22.1489C47.838 20.8525 47.838 20.8525 48.3563 20.9967Z" fill="white"/>
</g>
</svg>
